<svg width="2287" height="642" viewBox="0 0 2287 642" fill="none" xmlns="http://www.w3.org/2000/svg">
<path d="M1011.58 131.246C1007.6 132.259 1003.95 134.275 1000.97 137.102C997.997 139.929 995.795 143.473 994.578 147.395L898.404 457.705L809.59 229.41C807.906 225.084 805.003 221.339 801.234 218.629C797.465 215.919 792.99 214.36 788.353 214.141C783.716 213.923 779.115 215.053 775.107 217.397C771.099 219.74 767.857 223.195 765.773 227.344L704.805 348.789H611.828C605.463 348.789 599.358 351.318 594.858 355.819C590.357 360.319 587.828 366.424 587.828 372.789C587.828 379.154 590.357 385.259 594.858 389.76C599.358 394.261 605.463 396.789 611.828 396.789H719.609C724.06 396.789 728.422 395.552 732.21 393.215C735.998 390.879 739.061 387.536 741.059 383.559L784.438 297.148L878.604 539.201C880.41 543.841 883.615 547.804 887.774 550.541C891.932 553.279 896.84 554.655 901.815 554.48C906.791 554.305 911.59 552.586 915.545 549.563C919.501 546.54 922.419 542.361 923.895 537.605L1017 237.189L1063.32 393.326C1064.98 398.929 1068.63 403.733 1073.58 406.837C1078.54 409.94 1084.45 411.13 1090.22 410.184L1173.72 396.473C1180 395.441 1185.61 391.957 1189.33 386.787C1193.04 381.617 1194.54 375.183 1193.51 368.902C1193 365.792 1191.88 362.813 1190.22 360.135C1188.56 357.457 1186.39 355.132 1183.83 353.294C1181.27 351.456 1178.37 350.14 1175.3 349.422C1172.23 348.704 1169.05 348.597 1165.94 349.107L1103.32 359.389L1040.51 147.674C1038.74 141.729 1034.74 136.699 1029.35 133.636C1023.96 130.574 1017.59 129.717 1011.58 131.246Z" fill="white"/>
<path d="M1238.34 458.26C1224.18 458.26 1210.98 456.34 1198.74 452.5C1186.74 448.42 1176.18 442.42 1167.06 434.5C1158.18 426.58 1151.1 416.62 1145.82 404.62C1140.78 392.62 1138.26 378.58 1138.26 362.5C1138.26 346.66 1140.78 333.1 1145.82 321.82C1151.1 310.3 1157.94 300.94 1166.34 293.74C1174.74 286.3 1184.34 280.9 1195.14 277.54C1205.94 273.94 1216.98 272.14 1228.26 272.14C1240.98 272.14 1252.5 274.06 1262.82 277.9C1273.38 281.74 1282.38 287.02 1289.82 293.74C1297.5 300.46 1303.38 308.5 1307.46 317.86C1311.78 327.22 1313.94 337.42 1313.94 348.46C1313.94 356.62 1311.66 362.86 1307.1 367.18C1302.54 371.5 1296.18 374.26 1288.02 375.46L1199.1 388.78C1201.74 396.7 1207.14 402.7 1215.3 406.78C1223.46 410.62 1232.82 412.54 1243.38 412.54C1253.22 412.54 1262.46 411.34 1271.1 408.94C1279.98 406.3 1287.18 403.3 1292.7 399.94C1296.54 402.34 1299.78 405.7 1302.42 410.02C1305.06 414.34 1306.38 418.9 1306.38 423.7C1306.38 434.5 1301.34 442.54 1291.26 447.82C1283.58 451.9 1274.94 454.66 1265.34 456.1C1255.74 457.54 1246.74 458.26 1238.34 458.26ZM1228.26 316.78C1222.5 316.78 1217.46 317.74 1213.14 319.66C1209.06 321.58 1205.7 324.1 1203.06 327.22C1200.42 330.1 1198.38 333.46 1196.94 337.3C1195.74 340.9 1195.02 344.62 1194.78 348.46L1256.34 338.38C1255.62 333.58 1252.98 328.78 1248.42 323.98C1243.86 319.18 1237.14 316.78 1228.26 316.78ZM1335.84 365.02C1335.84 349.18 1338.24 335.5 1343.04 323.98C1347.84 312.22 1354.44 302.5 1362.84 294.82C1371.48 287.14 1381.44 281.5 1392.72 277.9C1404.24 274.06 1416.6 272.14 1429.8 272.14C1434.6 272.14 1439.28 272.62 1443.84 273.58C1448.4 274.3 1452.12 275.26 1455 276.46V218.14C1457.4 217.42 1461.24 216.7 1466.52 215.98C1471.8 215.02 1477.2 214.54 1482.72 214.54C1488 214.54 1492.68 214.9 1496.76 215.62C1501.08 216.34 1504.68 217.78 1507.56 219.94C1510.44 222.1 1512.6 225.1 1514.04 228.94C1515.48 232.54 1516.2 237.34 1516.2 243.34V413.98C1516.2 425.26 1510.92 434.26 1500.36 440.98C1493.4 445.54 1484.4 449.5 1473.36 452.86C1462.32 456.46 1449.6 458.26 1435.2 458.26C1419.6 458.26 1405.56 456.1 1393.08 451.78C1380.84 447.46 1370.4 441.22 1361.76 433.06C1353.36 424.9 1346.88 415.18 1342.32 403.9C1338 392.38 1335.84 379.42 1335.84 365.02ZM1438.08 320.02C1425.12 320.02 1415.16 323.74 1408.2 331.18C1401.24 338.62 1397.76 349.9 1397.76 365.02C1397.76 379.9 1401 391.18 1407.48 398.86C1413.96 406.3 1423.32 410.02 1435.56 410.02C1439.88 410.02 1443.72 409.42 1447.08 408.22C1450.68 406.78 1453.44 405.22 1455.36 403.54V324.34C1450.56 321.46 1444.8 320.02 1438.08 320.02ZM1620.94 365.74C1610.38 362.14 1600.78 358.54 1592.14 354.94C1583.5 351.1 1576.06 346.54 1569.82 341.26C1563.58 335.98 1558.66 329.74 1555.06 322.54C1551.7 315.1 1550.02 306.1 1550.02 295.54C1550.02 275.14 1557.82 258.82 1573.42 246.58C1589.26 234.34 1611.34 228.22 1639.66 228.22C1649.98 228.22 1659.58 228.94 1668.46 230.38C1677.34 231.82 1684.9 234.1 1691.14 237.22C1697.62 240.1 1702.66 243.94 1706.26 248.74C1709.86 253.3 1711.66 258.7 1711.66 264.94C1711.66 271.18 1710.22 276.58 1707.34 281.14C1704.46 285.46 1700.98 289.18 1696.9 292.3C1691.62 288.94 1684.54 286.06 1675.66 283.66C1666.78 281.02 1657.06 279.7 1646.5 279.7C1635.7 279.7 1627.78 281.26 1622.74 284.38C1617.7 287.26 1615.18 290.98 1615.18 295.54C1615.18 299.14 1616.74 302.14 1619.86 304.54C1622.98 306.7 1627.66 308.74 1633.9 310.66L1652.98 316.78C1675.54 323.98 1692.82 333.22 1704.82 344.5C1717.06 355.54 1723.18 370.66 1723.18 389.86C1723.18 410.26 1715.14 426.82 1699.06 439.54C1682.98 452.02 1659.34 458.26 1628.14 458.26C1617.1 458.26 1606.78 457.3 1597.18 455.38C1587.82 453.7 1579.54 451.18 1572.34 447.82C1565.38 444.22 1559.86 439.9 1555.78 434.86C1551.94 429.58 1550.02 423.58 1550.02 416.86C1550.02 409.9 1552.06 404.02 1556.14 399.22C1560.22 394.18 1564.66 390.34 1569.46 387.7C1576.18 392.98 1584.34 397.54 1593.94 401.38C1603.78 405.22 1614.46 407.14 1625.98 407.14C1637.74 407.14 1646.02 405.34 1650.82 401.74C1655.62 398.14 1658.02 393.94 1658.02 389.14C1658.02 384.34 1656.1 380.74 1652.26 378.34C1648.42 375.7 1643.02 373.18 1636.06 370.78L1620.94 365.74ZM1813.82 392.38C1813.82 398.62 1815.74 403.06 1819.58 405.7C1823.66 408.34 1829.3 409.66 1836.5 409.66C1840.1 409.66 1843.82 409.42 1847.66 408.94C1851.5 408.22 1854.86 407.38 1857.74 406.42C1859.9 409.06 1861.7 412.06 1863.14 415.42C1864.82 418.54 1865.66 422.38 1865.66 426.94C1865.66 436.06 1862.18 443.5 1855.22 449.26C1848.5 455.02 1836.5 457.9 1819.22 457.9C1798.1 457.9 1781.78 453.1 1770.26 443.5C1758.98 433.9 1753.34 418.3 1753.34 396.7V242.62C1755.98 241.9 1759.7 241.18 1764.5 240.46C1769.54 239.5 1774.82 239.02 1780.34 239.02C1790.9 239.02 1799.06 240.94 1804.82 244.78C1810.82 248.38 1813.82 256.18 1813.82 268.18V291.22H1860.98C1862.42 293.86 1863.74 297.22 1864.94 301.3C1866.38 305.14 1867.1 309.46 1867.1 314.26C1867.1 322.66 1865.18 328.78 1861.34 332.62C1857.74 336.22 1852.82 338.02 1846.58 338.02H1813.82V392.38ZM2075.73 365.02C2075.73 379.9 2073.45 393.22 2068.89 404.98C2064.33 416.5 2057.85 426.22 2049.45 434.14C2041.29 442.06 2031.45 448.06 2019.93 452.14C2008.41 456.22 1995.57 458.26 1981.41 458.26C1967.25 458.26 1954.41 456.1 1942.89 451.78C1931.37 447.46 1921.41 441.34 1913.01 433.42C1904.85 425.26 1898.49 415.42 1893.93 403.9C1889.37 392.38 1887.09 379.42 1887.09 365.02C1887.09 350.86 1889.37 338.02 1893.93 326.5C1898.49 314.98 1904.85 305.26 1913.01 297.34C1921.41 289.18 1931.37 282.94 1942.89 278.62C1954.41 274.3 1967.25 272.14 1981.41 272.14C1995.57 272.14 2008.41 274.42 2019.93 278.98C2031.45 283.3 2041.29 289.54 2049.45 297.7C2057.85 305.62 2064.33 315.34 2068.89 326.86C2073.45 338.38 2075.73 351.1 2075.73 365.02ZM1949.73 365.02C1949.73 379.66 1952.49 390.94 1958.01 398.86C1963.77 406.54 1971.69 410.38 1981.77 410.38C1991.85 410.38 1999.53 406.42 2004.81 398.5C2010.33 390.58 2013.09 379.42 2013.09 365.02C2013.09 350.62 2010.33 339.58 2004.81 331.9C1999.29 323.98 1991.49 320.02 1981.41 320.02C1971.33 320.02 1963.53 323.98 1958.01 331.9C1952.49 339.58 1949.73 350.62 1949.73 365.02ZM2276.59 420.82C2275.39 432.1 2272.03 440.74 2266.51 446.74C2261.23 452.74 2253.43 455.74 2243.11 455.74C2235.43 455.74 2228.59 453.94 2222.59 450.34C2216.59 446.5 2210.11 440.14 2203.15 431.26L2167.51 386.62V452.14C2164.87 452.62 2160.91 453.22 2155.63 453.94C2150.59 454.9 2145.43 455.38 2140.15 455.38C2134.87 455.38 2130.07 455.02 2125.75 454.3C2121.67 453.58 2118.19 452.14 2115.31 449.98C2112.43 447.82 2110.15 444.94 2108.47 441.34C2107.03 437.5 2106.31 432.58 2106.31 426.58V218.14C2108.95 217.42 2112.79 216.7 2117.83 215.98C2123.11 215.02 2128.39 214.54 2133.67 214.54C2138.95 214.54 2143.63 214.9 2147.71 215.62C2152.03 216.34 2155.63 217.78 2158.51 219.94C2161.39 222.1 2163.55 225.1 2164.99 228.94C2166.67 232.54 2167.51 237.34 2167.51 243.34V338.38L2229.43 275.02C2241.91 275.02 2251.87 277.78 2259.31 283.3C2266.99 288.82 2270.83 295.78 2270.83 304.18C2270.83 307.78 2270.23 311.14 2269.03 314.26C2267.83 317.14 2265.91 320.14 2263.27 323.26C2260.87 326.38 2257.63 329.74 2253.55 333.34C2249.71 336.7 2245.15 340.66 2239.87 345.22L2218.99 363.22L2276.59 420.82Z" fill="white"/>
<path d="M138.334 179C169.328 173 167.322 118.211 157.328 118.5C70.8224 121 38.8281 83 51.8338 16C-22.6724 93.5 51.8292 184.5 138.334 179Z" fill="#59C9FF"/>
<path d="M194.828 102.5C202.945 134.349 202.45 152.117 197.322 182C231.322 135.5 265.148 126.097 322.822 198.5C322.822 198.5 337.322 208.5 337.322 186.5C337.322 166.155 335.859 167.087 334.224 149.643C334.124 148.571 335.544 148.129 336.061 149.074C359.502 191.902 368.366 214.463 326.822 232.5C321.117 234.977 318.494 265.845 324.702 283.163C325.093 284.253 323.259 285.713 322.377 284.962C307.902 272.649 299.787 262.979 292.828 240.5C259.097 251.351 229.822 252 233.828 211C186.322 215.5 193.322 320 237.828 359.5L247.328 329C255.727 359.596 259.454 379.361 262.328 424.5C268.505 410.919 271.781 402.451 276.343 388.938C276.687 387.917 278.196 388.091 278.31 389.163C281.224 416.585 284.534 432.322 296.828 455C301.705 443.148 302.694 433.5 304.362 416.632C304.468 415.56 305.961 415.413 306.299 416.436C327.855 481.799 328.439 511.084 316.328 560.5C331.775 543.515 338.846 533.33 347.828 513.5C349.676 541.452 346.236 556.074 337.328 581.5L337.561 581.31C375.251 550.593 396.443 533.321 420.828 471C409.702 470.496 403.452 470.701 392.328 474C387.608 489.449 383.791 496.893 374.828 507.5C377.725 494.592 377.907 487.251 374.828 474C371.757 467.428 363.116 463.073 357.828 466C352.861 470.996 351.212 474.849 349.822 483C321.322 447.5 342.064 413.251 426.328 406.5C431.822 407 436.322 373.5 431.322 375C413.351 375.239 405.817 372.5 393.322 359.5C387.817 357.5 387.416 368.187 387.822 376C361.822 346 386.822 323 446.322 354C453.822 358.5 484.736 356 484.822 349.5C484.939 340.69 484.738 338.259 477.822 329.5C475.245 326.236 459.011 328.798 439.322 326.5C422.819 324.574 412.322 316 390.822 317.5C358.572 319.75 355.876 356.953 336.822 418.5C311.988 346.467 327.828 294.661 398.322 297C416.322 297.597 438.822 307.5 464.822 305.5C464.13 261.373 452.692 235.768 419.828 188C427.458 190.228 431.591 191.921 438.822 196C451.385 162.108 419.828 87 389.822 50.5C389.374 59.4071 388.8 64.2779 386.822 72.5C368.011 28.4778 346.91 13.4662 299.328 0C315.556 16.2734 321.455 26.3063 325.828 46C281.08 22.1349 256.487 18.0396 216.328 26.5C242.407 33.4061 253.935 39.7728 267.828 56.5C219.145 52.2072 197.244 57.2211 164.328 74.5C195.222 80.7181 212.346 85.1966 241.828 99C222.293 96.8821 211.73 96.883 194.828 102.5Z" fill="#59C9FF"/>
<path d="M138.334 179C169.328 173 167.322 118.211 157.328 118.5C70.8224 121 38.8281 83 51.8338 16C-22.6724 93.5 51.8292 184.5 138.334 179Z" fill="#FCDF66"/>
<path d="M474.328 396C474.328 390 477.661 379.833 479.328 375.5C480.494 375 483.028 374.1 483.828 374.5C484.828 375 484.328 381 483.828 384.5C483.328 388 480.328 403.5 476.828 406.5C473.328 409.5 474.328 403.5 474.328 396Z" fill="#59C9FF"/>
<path d="M398.327 434.5C409.527 430.5 440.661 428.833 454.827 428.5C455.661 432.5 456.628 441.2 453.828 444C450.328 447.5 441.828 445.5 427.328 446C412.828 446.5 380.827 447 378.827 444C376.827 441 384.327 439.5 398.327 434.5Z" fill="#59C9FF"/>
<path d="M101.825 354C96.3253 333 113.824 295 121.324 291C117.324 304.5 116.318 332.5 119.324 358C122.022 380.89 132.824 408 128.824 408C120.998 408 107.325 375 101.825 354Z" fill="#59C9FF"/>
<path d="M151.339 323C149.838 303.5 161.826 268.5 171.838 255C168.839 275 169.783 305.089 171.838 324C173.351 337.924 182.006 380.167 187.339 402C184.704 401.204 179.314 400.589 168.839 381C159.964 364.402 152.589 339.238 151.339 323Z" fill="#59C9FF"/>
<path d="M224.822 448C209.906 419 214.322 381.5 216.822 362.5C220.988 378.833 229.621 419.3 232.821 430.5C236.821 444.5 258.321 482 254.321 481C250.321 480 233.822 465.5 224.822 448Z" fill="#59C9FF"/>
<path d="M471.828 168.5L457.828 119.5C463.328 113.167 475.328 100.5 478.328 89.5C480.792 80.4662 483.662 57.8333 484.328 47.5C487.828 53 495.828 68.5 500.328 100.5C504.679 131.44 484.328 159 471.828 168.5Z" fill="#FCDF66"/>
<path d="M306.828 217.5C280.139 202.445 264.196 196.272 234.828 189.5C245.328 187 278.828 188 278.828 188C278.828 188 301.662 209.667 306.828 217.5Z" fill="#59C9FF"/>
<path d="M25.8261 200.5C66.3251 195.5 93.3262 218 90.8262 220C89.8262 224 35.7724 214.191 29.8452 222.999C27.8262 226 64.8452 243.499 61.8452 247.499C60.7202 248.999 59.3452 249.999 40.8452 240.999C26.3431 233.944 8.67718 215.999 0.343661 207.999C-1.67396 206.063 4.98529 203.073 25.8261 200.5Z" fill="#59C9FF"/>
<path d="M259.828 206.5C260.117 206.5 260.404 206.509 260.69 206.526C259.534 207.064 258.469 207.803 257.55 208.722C255.487 210.785 254.328 213.583 254.328 216.5C254.328 219.417 255.487 222.215 257.55 224.278C259.613 226.341 262.411 227.5 265.328 227.5C268.246 227.5 271.044 226.341 273.106 224.278C273.5 223.885 273.859 223.464 274.185 223.021C273.748 226.12 272.319 229.015 270.081 231.253C267.362 233.972 263.674 235.5 259.828 235.5C255.983 235.5 252.295 233.972 249.575 231.253C246.856 228.534 245.328 224.846 245.328 221C245.328 217.154 246.856 213.466 249.575 210.747C252.295 208.028 255.983 206.5 259.828 206.5Z" fill="#59C9FF"/>
</svg>
