<svg width="2323" height="681" viewBox="0 0 2323 681" fill="none" xmlns="http://www.w3.org/2000/svg">
<path d="M1047.79 170.737C1043.81 171.744 1040.14 173.759 1037.16 176.588C1034.17 179.418 1031.97 182.967 1030.75 186.895L934.576 497.205L845.762 268.91C844.078 264.584 841.175 260.839 837.406 258.129C833.637 255.419 829.162 253.86 824.525 253.641C819.888 253.423 815.286 254.554 811.279 256.897C807.271 259.24 804.029 262.695 801.945 266.844L740.977 388.289H648C641.635 388.289 635.53 390.818 631.029 395.319C626.529 399.82 624 405.924 624 412.289C624 418.655 626.529 424.759 631.029 429.26C635.53 433.761 641.635 436.289 648 436.289H755.781C760.232 436.289 764.594 435.052 768.382 432.716C772.17 430.379 775.233 427.036 777.23 423.059L820.609 336.651L914.775 578.701C916.582 583.341 919.787 587.304 923.945 590.042C928.104 592.779 933.011 594.156 937.987 593.98C942.963 593.805 947.761 592.087 951.717 589.063C955.673 586.04 958.591 581.861 960.066 577.106L1052.98 277.293L1099.96 438.225C1101.68 444.11 1105.58 449.114 1110.87 452.212C1116.16 455.309 1122.44 456.265 1128.41 454.883L1211.41 435.672C1217.61 434.237 1222.99 430.397 1226.36 424.997C1229.73 419.598 1230.82 413.08 1229.38 406.879C1228.67 403.808 1227.36 400.908 1225.53 398.343C1223.7 395.778 1221.38 393.599 1218.71 391.93C1216.03 390.261 1213.06 389.135 1209.95 388.617C1206.84 388.099 1203.66 388.198 1200.59 388.908L1139.68 403.004L1076.71 187.276C1074.97 181.313 1070.98 176.258 1065.59 173.173C1060.19 170.089 1053.82 169.215 1047.79 170.737Z" fill="#000C2D"/>
<path d="M1274.51 497.76C1260.35 497.76 1247.15 495.84 1234.91 492C1222.91 487.92 1212.35 481.92 1203.23 474C1194.35 466.08 1187.27 456.12 1181.99 444.12C1176.95 432.12 1174.43 418.08 1174.43 402C1174.43 386.16 1176.95 372.6 1181.99 361.32C1187.27 349.8 1194.11 340.44 1202.51 333.24C1210.91 325.8 1220.51 320.4 1231.31 317.04C1242.11 313.44 1253.15 311.64 1264.43 311.64C1277.15 311.64 1288.67 313.56 1298.99 317.4C1309.55 321.24 1318.55 326.52 1325.99 333.24C1333.67 339.96 1339.55 348 1343.63 357.36C1347.95 366.72 1350.11 376.92 1350.11 387.96C1350.11 396.12 1347.83 402.36 1343.27 406.68C1338.71 411 1332.35 413.76 1324.19 414.96L1235.27 428.28C1237.91 436.2 1243.31 442.2 1251.47 446.28C1259.63 450.12 1268.99 452.04 1279.55 452.04C1289.39 452.04 1298.63 450.84 1307.27 448.44C1316.15 445.8 1323.35 442.8 1328.87 439.44C1332.71 441.84 1335.95 445.2 1338.59 449.52C1341.23 453.84 1342.55 458.4 1342.55 463.2C1342.55 474 1337.51 482.04 1327.43 487.32C1319.75 491.4 1311.11 494.16 1301.51 495.6C1291.91 497.04 1282.91 497.76 1274.51 497.76ZM1264.43 356.28C1258.67 356.28 1253.63 357.24 1249.31 359.16C1245.23 361.08 1241.87 363.6 1239.23 366.72C1236.59 369.6 1234.55 372.96 1233.11 376.8C1231.91 380.4 1231.19 384.12 1230.95 387.96L1292.51 377.88C1291.79 373.08 1289.15 368.28 1284.59 363.48C1280.03 358.68 1273.31 356.28 1264.43 356.28ZM1372.01 404.52C1372.01 388.68 1374.41 375 1379.21 363.48C1384.01 351.72 1390.61 342 1399.01 334.32C1407.65 326.64 1417.61 321 1428.89 317.4C1440.41 313.56 1452.77 311.64 1465.97 311.64C1470.77 311.64 1475.45 312.12 1480.01 313.08C1484.57 313.8 1488.29 314.76 1491.17 315.96V257.64C1493.57 256.92 1497.41 256.2 1502.69 255.48C1507.97 254.52 1513.37 254.04 1518.89 254.04C1524.17 254.04 1528.85 254.4 1532.93 255.12C1537.25 255.84 1540.85 257.28 1543.73 259.44C1546.61 261.6 1548.77 264.6 1550.21 268.44C1551.65 272.04 1552.37 276.84 1552.37 282.84V453.48C1552.37 464.76 1547.09 473.76 1536.53 480.48C1529.57 485.04 1520.57 489 1509.53 492.36C1498.49 495.96 1485.77 497.76 1471.37 497.76C1455.77 497.76 1441.73 495.6 1429.25 491.28C1417.01 486.96 1406.57 480.72 1397.93 472.56C1389.53 464.4 1383.05 454.68 1378.49 443.4C1374.17 431.88 1372.01 418.92 1372.01 404.52ZM1474.25 359.52C1461.29 359.52 1451.33 363.24 1444.37 370.68C1437.41 378.12 1433.93 389.4 1433.93 404.52C1433.93 419.4 1437.17 430.68 1443.65 438.36C1450.13 445.8 1459.49 449.52 1471.73 449.52C1476.05 449.52 1479.89 448.92 1483.25 447.72C1486.85 446.28 1489.61 444.72 1491.53 443.04V363.84C1486.73 360.96 1480.97 359.52 1474.25 359.52ZM1657.11 405.24C1646.55 401.64 1636.95 398.04 1628.31 394.44C1619.67 390.6 1612.23 386.04 1605.99 380.76C1599.75 375.48 1594.83 369.24 1591.23 362.04C1587.87 354.6 1586.19 345.6 1586.19 335.04C1586.19 314.64 1593.99 298.32 1609.59 286.08C1625.43 273.84 1647.51 267.72 1675.83 267.72C1686.15 267.72 1695.75 268.44 1704.63 269.88C1713.51 271.32 1721.07 273.6 1727.31 276.72C1733.79 279.6 1738.83 283.44 1742.43 288.24C1746.03 292.8 1747.83 298.2 1747.83 304.44C1747.83 310.68 1746.39 316.08 1743.51 320.64C1740.63 324.96 1737.15 328.68 1733.07 331.8C1727.79 328.44 1720.71 325.56 1711.83 323.16C1702.95 320.52 1693.23 319.2 1682.67 319.2C1671.87 319.2 1663.95 320.76 1658.91 323.88C1653.87 326.76 1651.35 330.48 1651.35 335.04C1651.35 338.64 1652.91 341.64 1656.03 344.04C1659.15 346.2 1663.83 348.24 1670.07 350.16L1689.15 356.28C1711.71 363.48 1728.99 372.72 1740.99 384C1753.23 395.04 1759.35 410.16 1759.35 429.36C1759.35 449.76 1751.31 466.32 1735.23 479.04C1719.15 491.52 1695.51 497.76 1664.31 497.76C1653.27 497.76 1642.95 496.8 1633.35 494.88C1623.99 493.2 1615.71 490.68 1608.51 487.32C1601.55 483.72 1596.03 479.4 1591.95 474.36C1588.11 469.08 1586.19 463.08 1586.19 456.36C1586.19 449.4 1588.23 443.52 1592.31 438.72C1596.39 433.68 1600.83 429.84 1605.63 427.2C1612.35 432.48 1620.51 437.04 1630.11 440.88C1639.95 444.72 1650.63 446.64 1662.15 446.64C1673.91 446.64 1682.19 444.84 1686.99 441.24C1691.79 437.64 1694.19 433.44 1694.19 428.64C1694.19 423.84 1692.27 420.24 1688.43 417.84C1684.59 415.2 1679.19 412.68 1672.23 410.28L1657.11 405.24ZM1849.99 431.88C1849.99 438.12 1851.91 442.56 1855.75 445.2C1859.83 447.84 1865.47 449.16 1872.67 449.16C1876.27 449.16 1879.99 448.92 1883.83 448.44C1887.67 447.72 1891.03 446.88 1893.91 445.92C1896.07 448.56 1897.87 451.56 1899.31 454.92C1900.99 458.04 1901.83 461.88 1901.83 466.44C1901.83 475.56 1898.35 483 1891.39 488.76C1884.67 494.52 1872.67 497.4 1855.39 497.4C1834.27 497.4 1817.95 492.6 1806.43 483C1795.15 473.4 1789.51 457.8 1789.51 436.2V282.12C1792.15 281.4 1795.87 280.68 1800.67 279.96C1805.71 279 1810.99 278.52 1816.51 278.52C1827.07 278.52 1835.23 280.44 1840.99 284.28C1846.99 287.88 1849.99 295.68 1849.99 307.68V330.72H1897.15C1898.59 333.36 1899.91 336.72 1901.11 340.8C1902.55 344.64 1903.27 348.96 1903.27 353.76C1903.27 362.16 1901.35 368.28 1897.51 372.12C1893.91 375.72 1888.99 377.52 1882.75 377.52H1849.99V431.88ZM2111.9 404.52C2111.9 419.4 2109.62 432.72 2105.06 444.48C2100.5 456 2094.02 465.72 2085.62 473.64C2077.46 481.56 2067.62 487.56 2056.1 491.64C2044.58 495.72 2031.74 497.76 2017.58 497.76C2003.42 497.76 1990.58 495.6 1979.06 491.28C1967.54 486.96 1957.58 480.84 1949.18 472.92C1941.02 464.76 1934.66 454.92 1930.1 443.4C1925.54 431.88 1923.26 418.92 1923.26 404.52C1923.26 390.36 1925.54 377.52 1930.1 366C1934.66 354.48 1941.02 344.76 1949.18 336.84C1957.58 328.68 1967.54 322.44 1979.06 318.12C1990.58 313.8 2003.42 311.64 2017.58 311.64C2031.74 311.64 2044.58 313.92 2056.1 318.48C2067.62 322.8 2077.46 329.04 2085.62 337.2C2094.02 345.12 2100.5 354.84 2105.06 366.36C2109.62 377.88 2111.9 390.6 2111.9 404.52ZM1985.9 404.52C1985.9 419.16 1988.66 430.44 1994.18 438.36C1999.94 446.04 2007.86 449.88 2017.94 449.88C2028.02 449.88 2035.7 445.92 2040.98 438C2046.5 430.08 2049.26 418.92 2049.26 404.52C2049.26 390.12 2046.5 379.08 2040.98 371.4C2035.46 363.48 2027.66 359.52 2017.58 359.52C2007.5 359.52 1999.7 363.48 1994.18 371.4C1988.66 379.08 1985.9 390.12 1985.9 404.52ZM2312.76 460.32C2311.56 471.6 2308.2 480.24 2302.68 486.24C2297.4 492.24 2289.6 495.24 2279.28 495.24C2271.6 495.24 2264.76 493.44 2258.76 489.84C2252.76 486 2246.28 479.64 2239.32 470.76L2203.68 426.12V491.64C2201.04 492.12 2197.08 492.72 2191.8 493.44C2186.76 494.4 2181.6 494.88 2176.32 494.88C2171.04 494.88 2166.24 494.52 2161.92 493.8C2157.84 493.08 2154.36 491.64 2151.48 489.48C2148.6 487.32 2146.32 484.44 2144.64 480.84C2143.2 477 2142.48 472.08 2142.48 466.08V257.64C2145.12 256.92 2148.96 256.2 2154 255.48C2159.28 254.52 2164.56 254.04 2169.84 254.04C2175.12 254.04 2179.8 254.4 2183.88 255.12C2188.2 255.84 2191.8 257.28 2194.68 259.44C2197.56 261.6 2199.72 264.6 2201.16 268.44C2202.84 272.04 2203.68 276.84 2203.68 282.84V377.88L2265.6 314.52C2278.08 314.52 2288.04 317.28 2295.48 322.8C2303.16 328.32 2307 335.28 2307 343.68C2307 347.28 2306.4 350.64 2305.2 353.76C2304 356.64 2302.08 359.64 2299.44 362.76C2297.04 365.88 2293.8 369.24 2289.72 372.84C2285.88 376.2 2281.32 380.16 2276.04 384.72L2255.16 402.72L2312.76 460.32Z" fill="#000C2D"/>
<path d="M120.493 111C152.929 77.2872 175.161 66.3429 221.493 60C212.309 52.7623 204.679 49.4917 189.993 44C231.603 28.5304 261.632 32.0431 303.995 41.5C289.955 31.5801 281.194 27.0226 264.995 19.5C366.537 18.4438 429.495 36 480.995 132C497.755 104.998 490.662 79.9523 489.212 44.1346C489.078 40.8171 492.837 38.9218 495.414 41.016C571.889 103.176 578.03 197.421 505.993 249.5C521.171 289.226 521.745 310.355 518.993 347.5C548.495 373 542.995 433 514.993 466.5C511.496 492 499.995 501 480.995 512C484.995 594 407.495 651.5 313.993 681C254 555 84.5 580 92.4933 418.5C83.4157 431.024 80.7192 443.892 76 461C59.5 405 65 369.5 84.5 313C47.7365 299.306 24.5322 281.675 0 243.5C16.5289 224.163 30.2738 219.878 56.9933 215.5C3.15489 150.32 10.0275 86.5175 105.325 13.0231C111.695 8.11101 120.439 13.6311 118.879 21.5217C111.913 56.7541 105.9 87.6468 120.493 111Z" fill="#0053A0"/>
<path d="M174.506 218.5C205.5 212.5 203.494 157.711 193.5 158C106.994 160.5 75 122.5 88.0057 55.5C13.4995 133 88.0012 224 174.506 218.5Z" fill="#FCDF66"/>
<path d="M231.008 142C239.125 173.849 238.63 191.617 233.502 221.5C267.502 175 301.328 165.597 359.002 238C359.002 238 373.502 248 373.502 226C373.502 205.655 372.039 206.587 370.404 189.143C370.303 188.071 371.723 187.629 372.24 188.574C395.682 231.402 404.546 253.963 363.002 272C357.297 274.477 354.673 305.345 360.882 322.663C361.273 323.753 359.439 325.213 358.556 324.462C344.082 312.149 335.967 302.479 329.008 280C295.277 290.851 266.002 291.5 270.008 250.5C222.502 255 229.502 359.5 274.008 399L283.508 368.5C291.906 399.096 295.634 418.861 298.508 464C304.685 450.419 307.961 441.951 312.522 428.438C312.867 427.417 314.375 427.591 314.489 428.663C317.404 456.085 320.714 471.822 333.008 494.5C337.885 482.648 338.873 473 340.542 456.132C340.648 455.06 342.141 454.913 342.478 455.936C364.034 521.299 364.619 550.584 352.508 600C367.955 583.015 375.026 572.83 384.008 553C385.856 580.952 382.416 595.574 373.508 621L373.741 620.81C411.431 590.093 432.623 572.821 457.008 510.5C445.882 509.996 439.632 510.201 428.508 513.5C423.787 528.949 419.971 536.393 411.008 547C413.905 534.092 414.087 526.751 411.008 513.5C407.937 506.928 399.296 502.573 394.008 505.5C389.041 510.496 387.392 514.349 386.002 522.5C357.502 487 378.244 452.751 462.508 446C468.002 446.5 472.502 413 467.502 414.5C449.531 414.739 441.996 412 429.502 399C423.996 397 423.596 407.687 424.002 415.5C398.002 385.5 423.002 362.5 482.502 393.5C490.002 398 520.916 395.5 521.002 389C521.118 380.19 520.918 377.759 514.002 369C511.425 365.736 495.191 368.298 475.502 366C458.998 364.074 448.502 355.5 427.002 357C394.752 359.25 392.055 396.453 373.002 458C348.168 385.967 364.008 334.161 434.502 336.5C452.502 337.097 475.002 347 501.002 345C500.31 300.873 488.872 275.268 456.008 227.5C463.638 229.728 467.771 231.421 475.002 235.5C487.565 201.608 456.008 126.5 426.002 90C425.554 98.9071 424.98 103.778 423.002 112C404.191 67.9778 383.089 52.9662 335.508 39.5C351.736 55.7734 357.634 65.8063 362.008 85.5C317.26 61.6349 292.666 57.5396 252.508 66C278.587 72.9061 290.115 79.2728 304.008 96C255.325 91.7072 233.424 96.7211 200.508 114C231.402 120.218 248.526 124.697 278.008 138.5C258.473 136.382 247.91 136.383 231.008 142Z" fill="#59C9FF"/>
<path d="M510.499 435.5C510.499 429.5 513.833 419.333 515.499 415C516.666 414.5 519.2 413.6 520 414C521 414.5 520.5 420.5 520 424C519.5 427.5 516.499 443 512.999 446C509.499 449 510.499 443 510.499 435.5Z" fill="#59C9FF"/>
<path d="M434.499 474C445.699 470 476.832 468.333 490.999 468C491.833 472 492.8 480.7 490 483.5C486.5 487 478 485 463.5 485.5C449 486 416.999 486.5 414.999 483.5C412.999 480.5 420.499 479 434.499 474Z" fill="#59C9FF"/>
<path d="M138 393.5C132.782 363.204 149.999 334.5 157.499 330.5C153.499 344 152.493 372 155.499 397.5C158.197 420.39 168.893 446.586 164.999 447.5C159.986 448.677 143.778 427.051 138 393.5Z" fill="#59C9FF"/>
<path d="M187.511 362.5C186.01 343 197.998 308 208.01 294.5C205.011 314.5 208.41 349.5 208.01 363.5C207.61 377.5 218.178 419.667 223.511 441.5C220.423 439.921 216.031 439.475 205.011 420.5C195.558 404.224 188.76 378.738 187.511 362.5Z" fill="#59C9FF"/>
<path d="M261.001 487.5C246.086 458.5 250.502 421 253.002 402C257.168 418.333 265.801 458.8 269.001 470C273.001 484 294.501 521.5 290.501 520.5C286.501 519.5 270.002 505 261.001 487.5Z" fill="#59C9FF"/>
<path d="M508 208L494 159C499.5 152.667 511.3 137.8 514.5 129C517.7 120.2 519.833 97.3333 520.5 87C523.5 94.1667 530.9 114.8 536.5 140C542.1 165.2 519.833 195.833 508 208Z" fill="#FCDF66"/>
<path d="M343 257C316.311 241.945 300.368 235.772 271 229C281.5 226.5 315 227.5 315 227.5C315 227.5 337.833 249.167 343 257Z" fill="#59C9FF"/>
<path d="M61.998 240C102.497 235 129.498 257.5 126.998 259.5C125.998 263.5 71.9443 253.691 66.0171 262.499C63.998 265.5 101.017 282.999 98.0171 286.999C96.8921 288.499 95.5171 289.499 77.0171 280.499C62.515 273.444 44.8491 255.499 36.5155 247.499C34.4979 245.563 41.1572 242.573 61.998 240Z" fill="#59C9FF"/>
<path d="M310.5 260.5C310.5 264.346 308.972 268.034 306.253 270.753C303.534 273.472 299.846 275 296 275C292.154 275 288.466 273.472 285.747 270.753C283.028 268.034 281.5 264.346 281.5 260.5C281.5 256.654 283.028 252.966 285.747 250.247C288.466 247.528 292.154 246 296 246C299.846 246 303.534 247.528 306.253 250.247C308.972 252.966 310.5 256.654 310.5 260.5Z" fill="#59C9FF"/>
<path d="M312.5 256C312.5 258.917 311.341 261.715 309.278 263.778C307.215 265.841 304.417 267 301.5 267C298.583 267 295.785 265.841 293.722 263.778C291.659 261.715 290.5 258.917 290.5 256C290.5 253.083 291.659 250.285 293.722 248.222C295.785 246.159 298.583 245 301.5 245C304.417 245 307.215 246.159 309.278 248.222C311.341 250.285 312.5 253.083 312.5 256Z" fill="#0053A0"/>
</svg>
