<svg width="2598" height="1160" viewBox="0 0 2598 1160" fill="none" xmlns="http://www.w3.org/2000/svg">
<path d="M118.701 927V815H164.781C171.821 815 178.007 816.44 183.341 819.32C188.781 822.093 192.994 826.04 195.981 831.16C199.074 836.28 200.621 842.36 200.621 849.4V851.64C200.621 858.573 199.021 864.653 195.821 869.88C192.727 875 188.461 879 183.021 881.88C177.687 884.653 171.607 886.04 164.781 886.04H139.821V927H118.701ZM139.821 866.84H162.701C167.714 866.84 171.767 865.453 174.861 862.68C177.954 859.907 179.501 856.12 179.501 851.32V849.72C179.501 844.92 177.954 841.133 174.861 838.36C171.767 835.587 167.714 834.2 162.701 834.2H139.821V866.84ZM216.059 927V847.64H235.899V856.6H238.779C239.953 853.4 241.873 851.053 244.539 849.56C247.313 848.067 250.513 847.32 254.139 847.32H263.739V865.24H253.819C248.699 865.24 244.486 866.627 241.179 869.4C237.873 872.067 236.219 876.227 236.219 881.88V927H216.059ZM276.617 927V903L320.137 866.84V864.28H278.217V847.64H342.217V871.64L298.697 907.8V910.36H343.497V927H276.617ZM397.063 929.24C389.17 929.24 382.183 927.587 376.103 924.28C370.13 920.867 365.436 916.12 362.023 910.04C358.716 903.853 357.063 896.6 357.063 888.28V886.36C357.063 878.04 358.716 870.84 362.023 864.76C365.33 858.573 369.97 853.827 375.943 850.52C381.916 847.107 388.85 845.4 396.743 845.4C404.53 845.4 411.303 847.16 417.063 850.68C422.823 854.093 427.303 858.893 430.503 865.08C433.703 871.16 435.303 878.253 435.303 886.36V893.24H377.543C377.756 898.68 379.783 903.107 383.623 906.52C387.463 909.933 392.156 911.64 397.703 911.64C403.356 911.64 407.516 910.413 410.183 907.96C412.85 905.507 414.876 902.787 416.263 899.8L432.743 908.44C431.25 911.213 429.063 914.253 426.183 917.56C423.41 920.76 419.676 923.533 414.983 925.88C410.29 928.12 404.316 929.24 397.063 929.24ZM377.703 878.2H414.823C414.396 873.613 412.53 869.933 409.223 867.16C406.023 864.387 401.81 863 396.583 863C391.143 863 386.823 864.387 383.623 867.16C380.423 869.933 378.45 873.613 377.703 878.2ZM486.207 929.24C475.86 929.24 467.38 927 460.767 922.52C454.154 918.04 450.154 911.64 448.767 903.32L467.327 898.52C468.074 902.253 469.3 905.187 471.007 907.32C472.82 909.453 475.007 911 477.567 911.96C480.234 912.813 483.114 913.24 486.207 913.24C490.9 913.24 494.367 912.44 496.607 910.84C498.847 909.133 499.967 907.053 499.967 904.6C499.967 902.147 498.9 900.28 496.767 899C494.634 897.613 491.22 896.493 486.527 895.64L482.047 894.84C476.5 893.773 471.434 892.333 466.847 890.52C462.26 888.6 458.58 885.987 455.807 882.68C453.034 879.373 451.647 875.107 451.647 869.88C451.647 861.987 454.527 855.96 460.287 851.8C466.047 847.533 473.62 845.4 483.007 845.4C491.86 845.4 499.22 847.373 505.087 851.32C510.954 855.267 514.794 860.44 516.607 866.84L497.887 872.6C497.034 868.547 495.274 865.667 492.607 863.96C490.047 862.253 486.847 861.4 483.007 861.4C479.167 861.4 476.234 862.093 474.207 863.48C472.18 864.76 471.167 866.573 471.167 868.92C471.167 871.48 472.234 873.4 474.367 874.68C476.5 875.853 479.38 876.76 483.007 877.4L487.487 878.2C493.46 879.267 498.847 880.707 503.647 882.52C508.554 884.227 512.394 886.733 515.167 890.04C518.047 893.24 519.487 897.613 519.487 903.16C519.487 911.48 516.447 917.933 510.367 922.52C504.394 927 496.34 929.24 486.207 929.24ZM565.991 927C560.764 927 556.497 925.4 553.191 922.2C549.991 918.893 548.391 914.52 548.391 909.08V864.28H528.551V847.64H548.391V823H568.551V847.64H590.311V864.28H568.551V905.56C568.551 908.76 570.044 910.36 573.031 910.36H588.391V927H565.991ZM608.559 927V847.64H628.399V856.6H631.279C632.453 853.4 634.373 851.053 637.039 849.56C639.813 848.067 643.013 847.32 646.639 847.32H656.239V865.24H646.319C641.199 865.24 636.986 866.627 633.679 869.4C630.373 872.067 628.719 876.227 628.719 881.88V927H608.559ZM669.117 927V903L712.637 866.84V864.28H670.717V847.64H734.717V871.64L691.197 907.8V910.36H735.997V927H669.117ZM789.563 929.24C781.67 929.24 774.683 927.587 768.603 924.28C762.63 920.867 757.936 916.12 754.523 910.04C751.216 903.853 749.563 896.6 749.563 888.28V886.36C749.563 878.04 751.216 870.84 754.523 864.76C757.83 858.573 762.47 853.827 768.443 850.52C774.416 847.107 781.35 845.4 789.243 845.4C797.03 845.4 803.803 847.16 809.563 850.68C815.323 854.093 819.803 858.893 823.003 865.08C826.203 871.16 827.803 878.253 827.803 886.36V893.24H770.043C770.256 898.68 772.283 903.107 776.123 906.52C779.963 909.933 784.656 911.64 790.203 911.64C795.856 911.64 800.016 910.413 802.683 907.96C805.35 905.507 807.376 902.787 808.763 899.8L825.243 908.44C823.75 911.213 821.563 914.253 818.683 917.56C815.91 920.76 812.176 923.533 807.483 925.88C802.79 928.12 796.816 929.24 789.563 929.24ZM770.203 878.2H807.323C806.896 873.613 805.03 869.933 801.723 867.16C798.523 864.387 794.31 863 789.083 863C783.643 863 779.323 864.387 776.123 867.16C772.923 869.933 770.95 873.613 770.203 878.2ZM845.747 927V847.64H865.587V858.04H868.467C869.747 855.267 872.147 852.653 875.667 850.2C879.187 847.64 884.52 846.36 891.667 846.36C897.854 846.36 903.24 847.8 907.827 850.68C912.52 853.453 916.147 857.347 918.707 862.36C921.267 867.267 922.547 873.027 922.547 879.64V927H902.387V881.24C902.387 875.267 900.894 870.787 897.907 867.8C895.027 864.813 890.867 863.32 885.427 863.32C879.24 863.32 874.44 865.4 871.027 869.56C867.614 873.613 865.907 879.32 865.907 886.68V927H845.747ZM870.867 838.68L882.707 815H905.427L888.467 838.68H870.867ZM945.781 950.52V939.64H952.021C956.927 939.64 959.381 937.187 959.381 932.28V927.16H956.661C952.394 927.16 948.821 925.88 945.941 923.32C943.167 920.76 941.781 917.507 941.781 913.56C941.781 909.293 943.167 905.827 945.941 903.16C948.821 900.493 952.394 899.16 956.661 899.16C961.034 899.16 964.607 900.547 967.381 903.32C970.154 905.987 971.541 909.613 971.541 914.2V932.6C971.541 944.547 965.567 950.52 953.621 950.52H945.781ZM1033.55 927L1022.35 847.64H1042.35L1049.39 913.4H1052.27L1062.51 847.64H1094.83L1105.07 913.4H1107.95L1114.99 847.64H1134.99L1123.79 927H1090.35L1080.11 861.24H1077.23L1066.99 927H1033.55ZM1193.25 927V815H1213.41V876.92H1216.29L1242.53 847.64H1268.77L1232.13 886.04L1270.05 927H1244.13L1216.29 895.48H1213.41V927H1193.25ZM1313.96 927C1308.73 927 1304.47 925.4 1301.16 922.2C1297.96 918.893 1296.36 914.52 1296.36 909.08V864.28H1276.52V847.64H1296.36V823H1316.52V847.64H1338.28V864.28H1316.52V905.56C1316.52 908.76 1318.01 910.36 1321 910.36H1336.36V927H1313.96ZM1391.48 929.24C1383.58 929.24 1376.49 927.64 1370.2 924.44C1363.9 921.24 1358.94 916.6 1355.32 910.52C1351.69 904.44 1349.88 897.133 1349.88 888.6V886.04C1349.88 877.507 1351.69 870.2 1355.32 864.12C1358.94 858.04 1363.9 853.4 1370.2 850.2C1376.49 847 1383.58 845.4 1391.48 845.4C1399.37 845.4 1406.46 847 1412.76 850.2C1419.05 853.4 1424.01 858.04 1427.64 864.12C1431.26 870.2 1433.08 877.507 1433.08 886.04V888.6C1433.08 897.133 1431.26 904.44 1427.64 910.52C1424.01 916.6 1419.05 921.24 1412.76 924.44C1406.46 927.64 1399.37 929.24 1391.48 929.24ZM1391.48 911.32C1397.66 911.32 1402.78 909.347 1406.84 905.4C1410.89 901.347 1412.92 895.587 1412.92 888.12V886.52C1412.92 879.053 1410.89 873.347 1406.84 869.4C1402.89 865.347 1397.77 863.32 1391.48 863.32C1385.29 863.32 1380.17 865.347 1376.12 869.4C1372.06 873.347 1370.04 879.053 1370.04 886.52V888.12C1370.04 895.587 1372.06 901.347 1376.12 905.4C1380.17 909.347 1385.29 911.32 1391.48 911.32ZM1379.32 838.68L1391.16 815H1413.88L1396.92 838.68H1379.32ZM1451.68 927V847.64H1471.52V856.6H1474.4C1475.58 853.4 1477.5 851.053 1480.16 849.56C1482.94 848.067 1486.14 847.32 1489.76 847.32H1499.36V865.24H1489.44C1484.32 865.24 1480.11 866.627 1476.8 869.4C1473.5 872.067 1471.84 876.227 1471.84 881.88V927H1451.68ZM1548.47 929.24C1540.58 929.24 1533.59 927.587 1527.51 924.28C1521.54 920.867 1516.84 916.12 1513.43 910.04C1510.12 903.853 1508.47 896.6 1508.47 888.28V886.36C1508.47 878.04 1510.12 870.84 1513.43 864.76C1516.74 858.573 1521.38 853.827 1527.35 850.52C1533.32 847.107 1540.26 845.4 1548.15 845.4C1555.94 845.4 1562.71 847.16 1568.47 850.68C1574.23 854.093 1578.71 858.893 1581.91 865.08C1585.11 871.16 1586.71 878.253 1586.71 886.36V893.24H1528.95C1529.16 898.68 1531.19 903.107 1535.03 906.52C1538.87 909.933 1543.56 911.64 1549.11 911.64C1554.76 911.64 1558.92 910.413 1561.59 907.96C1564.26 905.507 1566.28 902.787 1567.67 899.8L1584.15 908.44C1582.66 911.213 1580.47 914.253 1577.59 917.56C1574.82 920.76 1571.08 923.533 1566.39 925.88C1561.7 928.12 1555.72 929.24 1548.47 929.24ZM1529.11 878.2H1566.23C1565.8 873.613 1563.94 869.933 1560.63 867.16C1557.43 864.387 1553.22 863 1547.99 863C1542.55 863 1538.23 864.387 1535.03 867.16C1531.83 869.933 1529.86 873.613 1529.11 878.2ZM1589.93 959V941.72H1600.49C1603.48 941.72 1604.97 940.12 1604.97 936.92V847.64H1625.13V941.08C1625.13 946.52 1623.53 950.84 1620.33 954.04C1617.13 957.347 1612.87 959 1607.53 959H1589.93ZM1615.05 838.36C1611.43 838.36 1608.33 837.187 1605.77 834.84C1603.32 832.493 1602.09 829.4 1602.09 825.56C1602.09 821.72 1603.32 818.627 1605.77 816.28C1608.33 813.933 1611.43 812.76 1615.05 812.76C1618.79 812.76 1621.88 813.933 1624.33 816.28C1626.79 818.627 1628.01 821.72 1628.01 825.56C1628.01 829.4 1626.79 832.493 1624.33 834.84C1621.88 837.187 1618.79 838.36 1615.05 838.36Z" fill="#232323"/>
<path d="M1688.09 927V847.64H1707.93V856.28H1710.81C1712.2 853.613 1714.49 851.32 1717.69 849.4C1720.89 847.373 1725.1 846.36 1730.33 846.36C1735.98 846.36 1740.52 847.48 1743.93 849.72C1747.34 851.853 1749.96 854.68 1751.77 858.2H1754.65C1756.46 854.787 1759.02 851.96 1762.33 849.72C1765.64 847.48 1770.33 846.36 1776.41 846.36C1781.32 846.36 1785.74 847.427 1789.69 849.56C1793.74 851.587 1796.94 854.733 1799.29 859C1801.74 863.16 1802.97 868.44 1802.97 874.84V927H1782.81V876.28C1782.81 871.907 1781.69 868.653 1779.45 866.52C1777.21 864.28 1774.06 863.16 1770.01 863.16C1765.42 863.16 1761.85 864.653 1759.29 867.64C1756.84 870.52 1755.61 874.68 1755.61 880.12V927H1735.45V876.28C1735.45 871.907 1734.33 868.653 1732.09 866.52C1729.85 864.28 1726.7 863.16 1722.65 863.16C1718.06 863.16 1714.49 864.653 1711.93 867.64C1709.48 870.52 1708.25 874.68 1708.25 880.12V927H1688.09ZM1860.81 929.24C1852.92 929.24 1845.93 927.587 1839.85 924.28C1833.88 920.867 1829.19 916.12 1825.77 910.04C1822.47 903.853 1820.81 896.6 1820.81 888.28V886.36C1820.81 878.04 1822.47 870.84 1825.77 864.76C1829.08 858.573 1833.72 853.827 1839.69 850.52C1845.67 847.107 1852.6 845.4 1860.49 845.4C1868.28 845.4 1875.05 847.16 1880.81 850.68C1886.57 854.093 1891.05 858.893 1894.25 865.08C1897.45 871.16 1899.05 878.253 1899.05 886.36V893.24H1841.29C1841.51 898.68 1843.53 903.107 1847.37 906.52C1851.21 909.933 1855.91 911.64 1861.45 911.64C1867.11 911.64 1871.27 910.413 1873.93 907.96C1876.6 905.507 1878.63 902.787 1880.01 899.8L1896.49 908.44C1895 911.213 1892.81 914.253 1889.93 917.56C1887.16 920.76 1883.43 923.533 1878.73 925.88C1874.04 928.12 1868.07 929.24 1860.81 929.24ZM1841.45 878.2H1878.57C1878.15 873.613 1876.28 869.933 1872.97 867.16C1869.77 864.387 1865.56 863 1860.33 863C1854.89 863 1850.57 864.387 1847.37 867.16C1844.17 869.933 1842.2 873.613 1841.45 878.2ZM1949 929.24C1942.7 929.24 1936.78 927.693 1931.24 924.6C1925.8 921.4 1921.42 916.76 1918.12 910.68C1914.81 904.6 1913.16 897.24 1913.16 888.6V886.04C1913.16 877.4 1914.81 870.04 1918.12 863.96C1921.42 857.88 1925.8 853.293 1931.24 850.2C1936.68 847 1942.6 845.4 1949 845.4C1953.8 845.4 1957.8 845.987 1961 847.16C1964.3 848.227 1966.97 849.613 1969 851.32C1971.02 853.027 1972.57 854.84 1973.64 856.76H1976.52V815H1996.68V927H1976.84V917.4H1973.96C1972.14 920.387 1969.32 923.107 1965.48 925.56C1961.74 928.013 1956.25 929.24 1949 929.24ZM1955.08 911.64C1961.26 911.64 1966.44 909.667 1970.6 905.72C1974.76 901.667 1976.84 895.8 1976.84 888.12V886.52C1976.84 878.84 1974.76 873.027 1970.6 869.08C1966.54 865.027 1961.37 863 1955.08 863C1948.89 863 1943.72 865.027 1939.56 869.08C1935.4 873.027 1933.32 878.84 1933.32 886.52V888.12C1933.32 895.8 1935.4 901.667 1939.56 905.72C1943.72 909.667 1948.89 911.64 1955.08 911.64ZM2027.67 959V941.4H2070.87C2073.85 941.4 2075.35 939.8 2075.35 936.6V916.6H2072.47C2071.61 918.413 2070.28 920.227 2068.47 922.04C2066.65 923.853 2064.2 925.347 2061.11 926.52C2058.01 927.693 2054.07 928.28 2049.27 928.28C2043.08 928.28 2037.64 926.893 2032.95 924.12C2028.36 921.24 2024.79 917.293 2022.23 912.28C2019.67 907.267 2018.39 901.507 2018.39 895V847.64H2038.55V893.4C2038.55 899.373 2039.99 903.853 2042.87 906.84C2045.85 909.827 2050.07 911.32 2055.51 911.32C2061.69 911.32 2066.49 909.293 2069.91 905.24C2073.32 901.08 2075.03 895.32 2075.03 887.96V847.64H2095.19V941.08C2095.19 946.52 2093.59 950.84 2090.39 954.04C2087.19 957.347 2082.92 959 2077.59 959H2027.67ZM2154.9 929.24C2147.22 929.24 2140.24 927.64 2133.94 924.44C2127.76 921.24 2122.85 916.6 2119.22 910.52C2115.6 904.44 2113.78 897.08 2113.78 888.44V886.2C2113.78 877.56 2115.6 870.2 2119.22 864.12C2122.85 858.04 2127.76 853.4 2133.94 850.2C2140.24 847 2147.22 845.4 2154.9 845.4C2162.48 845.4 2168.98 846.733 2174.42 849.4C2179.86 852.067 2184.24 855.747 2187.54 860.44C2190.96 865.027 2193.2 870.253 2194.26 876.12L2174.74 880.28C2174.32 877.08 2173.36 874.2 2171.86 871.64C2170.37 869.08 2168.24 867.053 2165.46 865.56C2162.8 864.067 2159.44 863.32 2155.38 863.32C2151.33 863.32 2147.65 864.227 2144.34 866.04C2141.14 867.747 2138.58 870.36 2136.66 873.88C2134.85 877.293 2133.94 881.507 2133.94 886.52V888.12C2133.94 893.133 2134.85 897.4 2136.66 900.92C2138.58 904.333 2141.14 906.947 2144.34 908.76C2147.65 910.467 2151.33 911.32 2155.38 911.32C2161.46 911.32 2166.05 909.773 2169.14 906.68C2172.34 903.48 2174.37 899.32 2175.22 894.2L2194.74 898.84C2193.36 904.493 2190.96 909.667 2187.54 914.36C2184.24 918.947 2179.86 922.573 2174.42 925.24C2168.98 927.907 2162.48 929.24 2154.9 929.24ZM2220.01 959V941.4H2263.21C2266.2 941.4 2267.69 939.8 2267.69 936.6V916.6H2264.81C2263.96 918.413 2262.63 920.227 2260.81 922.04C2259 923.853 2256.55 925.347 2253.45 926.52C2250.36 927.693 2246.41 928.28 2241.61 928.28C2235.43 928.28 2229.99 926.893 2225.29 924.12C2220.71 921.24 2217.13 917.293 2214.57 912.28C2212.01 907.267 2210.73 901.507 2210.73 895V847.64H2230.89V893.4C2230.89 899.373 2232.33 903.853 2235.21 906.84C2238.2 909.827 2242.41 911.32 2247.85 911.32C2254.04 911.32 2258.84 909.293 2262.25 905.24C2265.67 901.08 2267.37 895.32 2267.37 887.96V847.64H2287.53V941.08C2287.53 946.52 2285.93 950.84 2282.73 954.04C2279.53 957.347 2275.27 959 2269.93 959H2220.01ZM2309.97 927V847.64H2329.81V858.04H2332.69C2333.97 855.267 2336.37 852.653 2339.89 850.2C2343.41 847.64 2348.74 846.36 2355.89 846.36C2362.07 846.36 2367.46 847.8 2372.05 850.68C2376.74 853.453 2380.37 857.347 2382.93 862.36C2385.49 867.267 2386.77 873.027 2386.77 879.64V927H2366.61V881.24C2366.61 875.267 2365.11 870.787 2362.13 867.8C2359.25 864.813 2355.09 863.32 2349.65 863.32C2343.46 863.32 2338.66 865.4 2335.25 869.56C2331.83 873.613 2330.13 879.32 2330.13 886.68V927H2309.97ZM2433.2 929.24C2427.55 929.24 2422.48 928.28 2418 926.36C2413.52 924.333 2409.95 921.453 2407.28 917.72C2404.72 913.88 2403.44 909.24 2403.44 903.8C2403.44 898.36 2404.72 893.827 2407.28 890.2C2409.95 886.467 2413.57 883.693 2418.16 881.88C2422.85 879.96 2428.19 879 2434.16 879H2455.92V874.52C2455.92 870.787 2454.75 867.747 2452.4 865.4C2450.05 862.947 2446.32 861.72 2441.2 861.72C2436.19 861.72 2432.45 862.893 2430 865.24C2427.55 867.48 2425.95 870.413 2425.2 874.04L2406.64 867.8C2407.92 863.747 2409.95 860.067 2412.72 856.76C2415.6 853.347 2419.39 850.627 2424.08 848.6C2428.88 846.467 2434.69 845.4 2441.52 845.4C2451.97 845.4 2460.24 848.013 2466.32 853.24C2472.4 858.467 2475.44 866.04 2475.44 875.96V905.56C2475.44 908.76 2476.93 910.36 2479.92 910.36H2486.32V927H2472.88C2468.93 927 2465.68 926.04 2463.12 924.12C2460.56 922.2 2459.28 919.64 2459.28 916.44V916.28H2456.24C2455.81 917.56 2454.85 919.267 2453.36 921.4C2451.87 923.427 2449.52 925.24 2446.32 926.84C2443.12 928.44 2438.75 929.24 2433.2 929.24ZM2436.72 912.92C2442.37 912.92 2446.96 911.373 2450.48 908.28C2454.11 905.08 2455.92 900.867 2455.92 895.64V894.04H2435.6C2431.87 894.04 2428.93 894.84 2426.8 896.44C2424.67 898.04 2423.6 900.28 2423.6 903.16C2423.6 906.04 2424.72 908.387 2426.96 910.2C2429.2 912.013 2432.45 912.92 2436.72 912.92ZM874.35 1119C869.123 1119 864.857 1117.4 861.55 1114.2C858.35 1110.89 856.75 1106.52 856.75 1101.08V1056.28H836.91V1039.64H856.75V1015H876.91V1039.64H898.67V1056.28H876.91V1097.56C876.91 1100.76 878.403 1102.36 881.39 1102.36H896.75V1119H874.35ZM950.266 1121.24C942.373 1121.24 935.386 1119.59 929.306 1116.28C923.333 1112.87 918.64 1108.12 915.226 1102.04C911.92 1095.85 910.266 1088.6 910.266 1080.28V1078.36C910.266 1070.04 911.92 1062.84 915.226 1056.76C918.533 1050.57 923.173 1045.83 929.146 1042.52C935.12 1039.11 942.053 1037.4 949.946 1037.4C957.733 1037.4 964.506 1039.16 970.266 1042.68C976.026 1046.09 980.506 1050.89 983.706 1057.08C986.906 1063.16 988.506 1070.25 988.506 1078.36V1085.24H930.746C930.96 1090.68 932.986 1095.11 936.826 1098.52C940.666 1101.93 945.36 1103.64 950.906 1103.64C956.56 1103.64 960.72 1102.41 963.386 1099.96C966.053 1097.51 968.08 1094.79 969.466 1091.8L985.946 1100.44C984.453 1103.21 982.266 1106.25 979.386 1109.56C976.613 1112.76 972.88 1115.53 968.186 1117.88C963.493 1120.12 957.52 1121.24 950.266 1121.24ZM930.906 1070.2H968.026C967.6 1065.61 965.733 1061.93 962.426 1059.16C959.226 1056.39 955.013 1055 949.786 1055C944.346 1055 940.026 1056.39 936.826 1059.16C933.626 1061.93 931.653 1065.61 930.906 1070.2ZM1043.73 1121.24C1036.05 1121.24 1029.06 1119.64 1022.77 1116.44C1016.58 1113.24 1011.68 1108.6 1008.05 1102.52C1004.42 1096.44 1002.61 1089.08 1002.61 1080.44V1078.2C1002.61 1069.56 1004.42 1062.2 1008.05 1056.12C1011.68 1050.04 1016.58 1045.4 1022.77 1042.2C1029.06 1039 1036.05 1037.4 1043.73 1037.4C1051.3 1037.4 1057.81 1038.73 1063.25 1041.4C1068.69 1044.07 1073.06 1047.75 1076.37 1052.44C1079.78 1057.03 1082.02 1062.25 1083.09 1068.12L1063.57 1072.28C1063.14 1069.08 1062.18 1066.2 1060.69 1063.64C1059.2 1061.08 1057.06 1059.05 1054.29 1057.56C1051.62 1056.07 1048.26 1055.32 1044.21 1055.32C1040.16 1055.32 1036.48 1056.23 1033.17 1058.04C1029.97 1059.75 1027.41 1062.36 1025.49 1065.88C1023.68 1069.29 1022.77 1073.51 1022.77 1078.52V1080.12C1022.77 1085.13 1023.68 1089.4 1025.49 1092.92C1027.41 1096.33 1029.97 1098.95 1033.17 1100.76C1036.48 1102.47 1040.16 1103.32 1044.21 1103.32C1050.29 1103.32 1054.88 1101.77 1057.97 1098.68C1061.17 1095.48 1063.2 1091.32 1064.05 1086.2L1083.57 1090.84C1082.18 1096.49 1079.78 1101.67 1076.37 1106.36C1073.06 1110.95 1068.69 1114.57 1063.25 1117.24C1057.81 1119.91 1051.3 1121.24 1043.73 1121.24ZM1100.2 1119V1007H1120.36V1049.4H1123.24C1124.09 1047.69 1125.43 1045.99 1127.24 1044.28C1129.05 1042.57 1131.45 1041.19 1134.44 1040.12C1137.53 1038.95 1141.43 1038.36 1146.12 1038.36C1152.31 1038.36 1157.69 1039.8 1162.28 1042.68C1166.97 1045.45 1170.6 1049.35 1173.16 1054.36C1175.72 1059.27 1177 1065.03 1177 1071.64V1119H1156.84V1073.24C1156.84 1067.27 1155.35 1062.79 1152.36 1059.8C1149.48 1056.81 1145.32 1055.32 1139.88 1055.32C1133.69 1055.32 1128.89 1057.4 1125.48 1061.56C1122.07 1065.61 1120.36 1071.32 1120.36 1078.68V1119H1100.2ZM1198.79 1119V1039.64H1218.63V1050.04H1221.51C1222.79 1047.27 1225.19 1044.65 1228.71 1042.2C1232.23 1039.64 1237.57 1038.36 1244.71 1038.36C1250.9 1038.36 1256.29 1039.8 1260.87 1042.68C1265.57 1045.45 1269.19 1049.35 1271.75 1054.36C1274.31 1059.27 1275.59 1065.03 1275.59 1071.64V1119H1255.43V1073.24C1255.43 1067.27 1253.94 1062.79 1250.95 1059.8C1248.07 1056.81 1243.91 1055.32 1238.47 1055.32C1232.29 1055.32 1227.49 1057.4 1224.07 1061.56C1220.66 1065.61 1218.95 1071.32 1218.95 1078.68V1119H1198.79ZM1335.15 1121.24C1327.25 1121.24 1320.16 1119.64 1313.87 1116.44C1307.57 1113.24 1302.61 1108.6 1298.99 1102.52C1295.36 1096.44 1293.55 1089.13 1293.55 1080.6V1078.04C1293.55 1069.51 1295.36 1062.2 1298.99 1056.12C1302.61 1050.04 1307.57 1045.4 1313.87 1042.2C1320.16 1039 1327.25 1037.4 1335.15 1037.4C1343.04 1037.4 1350.13 1039 1356.43 1042.2C1362.72 1045.4 1367.68 1050.04 1371.31 1056.12C1374.93 1062.2 1376.75 1069.51 1376.75 1078.04V1080.6C1376.75 1089.13 1374.93 1096.44 1371.31 1102.52C1367.68 1108.6 1362.72 1113.24 1356.43 1116.44C1350.13 1119.64 1343.04 1121.24 1335.15 1121.24ZM1335.15 1103.32C1341.33 1103.32 1346.45 1101.35 1350.51 1097.4C1354.56 1093.35 1356.59 1087.59 1356.59 1080.12V1078.52C1356.59 1071.05 1354.56 1065.35 1350.51 1061.4C1346.56 1057.35 1341.44 1055.32 1335.15 1055.32C1328.96 1055.32 1323.84 1057.35 1319.79 1061.4C1315.73 1065.35 1313.71 1071.05 1313.71 1078.52V1080.12C1313.71 1087.59 1315.73 1093.35 1319.79 1097.4C1323.84 1101.35 1328.96 1103.32 1335.15 1103.32ZM1395.36 1119V1007H1415.52V1119H1395.36ZM1475.62 1121.24C1467.72 1121.24 1460.63 1119.64 1454.34 1116.44C1448.04 1113.24 1443.08 1108.6 1439.46 1102.52C1435.83 1096.44 1434.02 1089.13 1434.02 1080.6V1078.04C1434.02 1069.51 1435.83 1062.2 1439.46 1056.12C1443.08 1050.04 1448.04 1045.4 1454.34 1042.2C1460.63 1039 1467.72 1037.4 1475.62 1037.4C1483.51 1037.4 1490.6 1039 1496.9 1042.2C1503.19 1045.4 1508.15 1050.04 1511.78 1056.12C1515.4 1062.2 1517.22 1069.51 1517.22 1078.04V1080.6C1517.22 1089.13 1515.4 1096.44 1511.78 1102.52C1508.15 1108.6 1503.19 1113.24 1496.9 1116.44C1490.6 1119.64 1483.51 1121.24 1475.62 1121.24ZM1475.62 1103.32C1481.8 1103.32 1486.92 1101.35 1490.98 1097.4C1495.03 1093.35 1497.06 1087.59 1497.06 1080.12V1078.52C1497.06 1071.05 1495.03 1065.35 1490.98 1061.4C1487.03 1057.35 1481.91 1055.32 1475.62 1055.32C1469.43 1055.32 1464.31 1057.35 1460.26 1061.4C1456.2 1065.35 1454.18 1071.05 1454.18 1078.52V1080.12C1454.18 1087.59 1456.2 1093.35 1460.26 1097.4C1464.31 1101.35 1469.43 1103.32 1475.62 1103.32ZM1531.99 1079.64V1077.08C1531.99 1068.76 1533.64 1061.67 1536.95 1055.8C1540.25 1049.83 1544.63 1045.29 1550.07 1042.2C1555.61 1039 1561.64 1037.4 1568.15 1037.4C1575.4 1037.4 1580.89 1038.68 1584.63 1041.24C1588.36 1043.8 1591.08 1046.47 1592.79 1049.24H1595.67V1039.64H1615.51V1133.08C1615.51 1138.52 1613.91 1142.84 1610.71 1146.04C1607.51 1149.35 1603.24 1151 1597.91 1151H1544.79V1133.4H1590.87C1593.85 1133.4 1595.35 1131.8 1595.35 1128.6V1107.96H1592.47C1591.4 1109.67 1589.91 1111.43 1587.99 1113.24C1586.07 1114.95 1583.51 1116.39 1580.31 1117.56C1577.11 1118.73 1573.05 1119.32 1568.15 1119.32C1561.64 1119.32 1555.61 1117.77 1550.07 1114.68C1544.63 1111.48 1540.25 1106.95 1536.95 1101.08C1533.64 1095.11 1531.99 1087.96 1531.99 1079.64ZM1573.91 1101.72C1580.09 1101.72 1585.27 1099.75 1589.43 1095.8C1593.59 1091.85 1595.67 1086.31 1595.67 1079.16V1077.56C1595.67 1070.31 1593.59 1064.76 1589.43 1060.92C1585.37 1056.97 1580.2 1055 1573.91 1055C1567.72 1055 1562.55 1056.97 1558.39 1060.92C1554.23 1064.76 1552.15 1070.31 1552.15 1077.56V1079.16C1552.15 1086.31 1554.23 1091.85 1558.39 1095.8C1562.55 1099.75 1567.72 1101.72 1573.91 1101.72ZM1637.86 1119V1039.64H1658.02V1119H1637.86ZM1647.94 1030.36C1644.31 1030.36 1641.22 1029.19 1638.66 1026.84C1636.2 1024.49 1634.98 1021.4 1634.98 1017.56C1634.98 1013.72 1636.2 1010.63 1638.66 1008.28C1641.22 1005.93 1644.31 1004.76 1647.94 1004.76C1651.67 1004.76 1654.76 1005.93 1657.22 1008.28C1659.67 1010.63 1660.9 1013.72 1660.9 1017.56C1660.9 1021.4 1659.67 1024.49 1657.22 1026.84C1654.76 1029.19 1651.67 1030.36 1647.94 1030.36ZM1716.52 1121.24C1708.62 1121.24 1701.64 1119.59 1695.56 1116.28C1689.58 1112.87 1684.89 1108.12 1681.48 1102.04C1678.17 1095.85 1676.52 1088.6 1676.52 1080.28V1078.36C1676.52 1070.04 1678.17 1062.84 1681.48 1056.76C1684.78 1050.57 1689.42 1045.83 1695.4 1042.52C1701.37 1039.11 1708.3 1037.4 1716.2 1037.4C1723.98 1037.4 1730.76 1039.16 1736.52 1042.68C1742.28 1046.09 1746.76 1050.89 1749.96 1057.08C1753.16 1063.16 1754.76 1070.25 1754.76 1078.36V1085.24H1697C1697.21 1090.68 1699.24 1095.11 1703.08 1098.52C1706.92 1101.93 1711.61 1103.64 1717.16 1103.64C1722.81 1103.64 1726.97 1102.41 1729.64 1099.96C1732.3 1097.51 1734.33 1094.79 1735.72 1091.8L1752.2 1100.44C1750.7 1103.21 1748.52 1106.25 1745.64 1109.56C1742.86 1112.76 1739.13 1115.53 1734.44 1117.88C1729.74 1120.12 1723.77 1121.24 1716.52 1121.24ZM1697.16 1070.2H1734.28C1733.85 1065.61 1731.98 1061.93 1728.68 1059.16C1725.48 1056.39 1721.26 1055 1716.04 1055C1710.6 1055 1706.28 1056.39 1703.08 1059.16C1699.88 1061.93 1697.9 1065.61 1697.16 1070.2ZM1850.61 1121.24C1842.93 1121.24 1835.94 1119.64 1829.65 1116.44C1823.46 1113.24 1818.55 1108.6 1814.93 1102.52C1811.3 1096.44 1809.49 1089.08 1809.49 1080.44V1078.2C1809.49 1069.56 1811.3 1062.2 1814.93 1056.12C1818.55 1050.04 1823.46 1045.4 1829.65 1042.2C1835.94 1039 1842.93 1037.4 1850.61 1037.4C1858.18 1037.4 1864.69 1038.73 1870.13 1041.4C1875.57 1044.07 1879.94 1047.75 1883.25 1052.44C1886.66 1057.03 1888.9 1062.25 1889.97 1068.12L1870.45 1072.28C1870.02 1069.08 1869.06 1066.2 1867.57 1063.64C1866.07 1061.08 1863.94 1059.05 1861.17 1057.56C1858.5 1056.07 1855.14 1055.32 1851.09 1055.32C1847.03 1055.32 1843.35 1056.23 1840.05 1058.04C1836.85 1059.75 1834.29 1062.36 1832.37 1065.88C1830.55 1069.29 1829.65 1073.51 1829.65 1078.52V1080.12C1829.65 1085.13 1830.55 1089.4 1832.37 1092.92C1834.29 1096.33 1836.85 1098.95 1840.05 1100.76C1843.35 1102.47 1847.03 1103.32 1851.09 1103.32C1857.17 1103.32 1861.75 1101.77 1864.85 1098.68C1868.05 1095.48 1870.07 1091.32 1870.93 1086.2L1890.45 1090.84C1889.06 1096.49 1886.66 1101.67 1883.25 1106.36C1879.94 1110.95 1875.57 1114.57 1870.13 1117.24C1864.69 1119.91 1858.18 1121.24 1850.61 1121.24ZM1915.72 1151V1133.4H1958.92C1961.9 1133.4 1963.4 1131.8 1963.4 1128.6V1108.6H1960.52C1959.66 1110.41 1958.33 1112.23 1956.52 1114.04C1954.7 1115.85 1952.25 1117.35 1949.16 1118.52C1946.06 1119.69 1942.12 1120.28 1937.32 1120.28C1931.13 1120.28 1925.69 1118.89 1921 1116.12C1916.41 1113.24 1912.84 1109.29 1910.28 1104.28C1907.72 1099.27 1906.43 1093.51 1906.43 1087V1039.64H1926.6V1085.4C1926.6 1091.37 1928.04 1095.85 1930.92 1098.84C1933.9 1101.83 1938.12 1103.32 1943.56 1103.32C1949.74 1103.32 1954.54 1101.29 1957.96 1097.24C1961.37 1093.08 1963.08 1087.32 1963.08 1079.96V1039.64H1983.24V1133.08C1983.24 1138.52 1981.64 1142.84 1978.44 1146.04C1975.24 1149.35 1970.97 1151 1965.64 1151H1915.72ZM2018.79 1119V1056.28H1998.63V1039.64H2018.79V1024.92C2018.79 1019.48 2020.39 1015.16 2023.59 1011.96C2026.9 1008.65 2031.16 1007 2036.39 1007H2057.19V1023.64H2043.43C2040.44 1023.64 2038.95 1025.24 2038.95 1028.44V1039.64H2059.75V1056.28H2038.95V1119H2018.79ZM2075.36 1119V1039.64H2095.2V1048.6H2098.08C2099.25 1045.4 2101.17 1043.05 2103.84 1041.56C2106.61 1040.07 2109.81 1039.32 2113.44 1039.32H2123.04V1057.24H2113.12C2108 1057.24 2103.78 1058.63 2100.48 1061.4C2097.17 1064.07 2095.52 1068.23 2095.52 1073.88V1119H2075.36ZM2173.74 1121.24C2165.85 1121.24 2158.75 1119.64 2152.46 1116.44C2146.17 1113.24 2141.21 1108.6 2137.58 1102.52C2133.95 1096.44 2132.14 1089.13 2132.14 1080.6V1078.04C2132.14 1069.51 2133.95 1062.2 2137.58 1056.12C2141.21 1050.04 2146.17 1045.4 2152.46 1042.2C2158.75 1039 2165.85 1037.4 2173.74 1037.4C2181.63 1037.4 2188.73 1039 2195.02 1042.2C2201.31 1045.4 2206.27 1050.04 2209.9 1056.12C2213.53 1062.2 2215.34 1069.51 2215.34 1078.04V1080.6C2215.34 1089.13 2213.53 1096.44 2209.9 1102.52C2206.27 1108.6 2201.31 1113.24 2195.02 1116.44C2188.73 1119.64 2181.63 1121.24 2173.74 1121.24ZM2173.74 1103.32C2179.93 1103.32 2185.05 1101.35 2189.1 1097.4C2193.15 1093.35 2195.18 1087.59 2195.18 1080.12V1078.52C2195.18 1071.05 2193.15 1065.35 2189.1 1061.4C2185.15 1057.35 2180.03 1055.32 2173.74 1055.32C2167.55 1055.32 2162.43 1057.35 2158.38 1061.4C2154.33 1065.35 2152.3 1071.05 2152.3 1078.52V1080.12C2152.3 1087.59 2154.33 1093.35 2158.38 1097.4C2162.43 1101.35 2167.55 1103.32 2173.74 1103.32ZM2240.04 1119L2228.84 1039.64H2248.84L2255.88 1105.4H2258.76L2269 1039.64H2301.32L2311.56 1105.4H2314.44L2321.48 1039.64H2341.48L2330.28 1119H2296.84L2286.6 1053.24H2283.72L2273.48 1119H2240.04ZM2394.95 1121.24C2387.06 1121.24 2380.07 1119.59 2373.99 1116.28C2368.02 1112.87 2363.33 1108.12 2359.91 1102.04C2356.61 1095.85 2354.95 1088.6 2354.95 1080.28V1078.36C2354.95 1070.04 2356.61 1062.84 2359.91 1056.76C2363.22 1050.57 2367.86 1045.83 2373.83 1042.52C2379.81 1039.11 2386.74 1037.4 2394.63 1037.4C2402.42 1037.4 2409.19 1039.16 2414.95 1042.68C2420.71 1046.09 2425.19 1050.89 2428.39 1057.08C2431.59 1063.16 2433.19 1070.25 2433.19 1078.36V1085.24H2375.43C2375.65 1090.68 2377.67 1095.11 2381.51 1098.52C2385.35 1101.93 2390.05 1103.64 2395.59 1103.64C2401.25 1103.64 2405.41 1102.41 2408.07 1099.96C2410.74 1097.51 2412.77 1094.79 2414.15 1091.8L2430.63 1100.44C2429.14 1103.21 2426.95 1106.25 2424.07 1109.56C2421.3 1112.76 2417.57 1115.53 2412.87 1117.88C2408.18 1120.12 2402.21 1121.24 2394.95 1121.24ZM2375.59 1070.2H2412.71C2412.29 1065.61 2410.42 1061.93 2407.11 1059.16C2403.91 1056.39 2399.7 1055 2394.47 1055C2389.03 1055 2384.71 1056.39 2381.51 1059.16C2378.31 1061.93 2376.34 1065.61 2375.59 1070.2Z" fill="#0053A0"/>
<path d="M202.223 1121.24C191.876 1121.24 183.396 1119 176.783 1114.52C170.169 1110.04 166.169 1103.64 164.783 1095.32L183.343 1090.52C184.089 1094.25 185.316 1097.19 187.023 1099.32C188.836 1101.45 191.023 1103 193.583 1103.96C196.249 1104.81 199.129 1105.24 202.223 1105.24C206.916 1105.24 210.383 1104.44 212.623 1102.84C214.863 1101.13 215.983 1099.05 215.983 1096.6C215.983 1094.15 214.916 1092.28 212.783 1091C210.649 1089.61 207.236 1088.49 202.543 1087.64L198.062 1086.84C192.516 1085.77 187.449 1084.33 182.863 1082.52C178.276 1080.6 174.596 1077.99 171.823 1074.68C169.049 1071.37 167.663 1067.11 167.663 1061.88C167.663 1053.99 170.543 1047.96 176.303 1043.8C182.063 1039.53 189.636 1037.4 199.023 1037.4C207.876 1037.4 215.236 1039.37 221.103 1043.32C226.969 1047.27 230.809 1052.44 232.623 1058.84L213.903 1064.6C213.049 1060.55 211.289 1057.67 208.623 1055.96C206.063 1054.25 202.863 1053.4 199.023 1053.4C195.183 1053.4 192.249 1054.09 190.223 1055.48C188.196 1056.76 187.183 1058.57 187.183 1060.92C187.183 1063.48 188.249 1065.4 190.383 1066.68C192.516 1067.85 195.396 1068.76 199.023 1069.4L203.503 1070.2C209.476 1071.27 214.863 1072.71 219.663 1074.52C224.569 1076.23 228.409 1078.73 231.183 1082.04C234.063 1085.24 235.503 1089.61 235.503 1095.16C235.503 1103.48 232.463 1109.93 226.383 1114.52C220.409 1119 212.356 1121.24 202.223 1121.24ZM253.169 1151V1039.64H273.009V1049.24H275.889C277.702 1046.15 280.529 1043.43 284.369 1041.08C288.209 1038.63 293.702 1037.4 300.849 1037.4C307.249 1037.4 313.169 1039 318.609 1042.2C324.049 1045.29 328.422 1049.88 331.729 1055.96C335.035 1062.04 336.689 1069.4 336.689 1078.04V1080.6C336.689 1089.24 335.035 1096.6 331.729 1102.68C328.422 1108.76 324.049 1113.4 318.609 1116.6C313.169 1119.69 307.249 1121.24 300.849 1121.24C296.049 1121.24 291.995 1120.65 288.689 1119.48C285.489 1118.41 282.875 1117.03 280.849 1115.32C278.929 1113.51 277.382 1111.69 276.209 1109.88H273.329V1151H253.169ZM294.769 1103.64C301.062 1103.64 306.235 1101.67 310.289 1097.72C314.449 1093.67 316.529 1087.8 316.529 1080.12V1078.52C316.529 1070.84 314.449 1065.03 310.289 1061.08C306.129 1057.03 300.955 1055 294.769 1055C288.582 1055 283.409 1057.03 279.249 1061.08C275.089 1065.03 273.009 1070.84 273.009 1078.52V1080.12C273.009 1087.8 275.089 1093.67 279.249 1097.72C283.409 1101.67 288.582 1103.64 294.769 1103.64ZM392.96 1121.24C385.067 1121.24 377.973 1119.64 371.68 1116.44C365.387 1113.24 360.427 1108.6 356.8 1102.52C353.173 1096.44 351.36 1089.13 351.36 1080.6V1078.04C351.36 1069.51 353.173 1062.2 356.8 1056.12C360.427 1050.04 365.387 1045.4 371.68 1042.2C377.973 1039 385.067 1037.4 392.96 1037.4C400.853 1037.4 407.947 1039 414.24 1042.2C420.533 1045.4 425.493 1050.04 429.12 1056.12C432.747 1062.2 434.56 1069.51 434.56 1078.04V1080.6C434.56 1089.13 432.747 1096.44 429.12 1102.52C425.493 1108.6 420.533 1113.24 414.24 1116.44C407.947 1119.64 400.853 1121.24 392.96 1121.24ZM392.96 1103.32C399.147 1103.32 404.267 1101.35 408.32 1097.4C412.373 1093.35 414.4 1087.59 414.4 1080.12V1078.52C414.4 1071.05 412.373 1065.35 408.32 1061.4C404.373 1057.35 399.253 1055.32 392.96 1055.32C386.773 1055.32 381.653 1057.35 377.6 1061.4C373.547 1065.35 371.52 1071.05 371.52 1078.52V1080.12C371.52 1087.59 373.547 1093.35 377.6 1097.4C381.653 1101.35 386.773 1103.32 392.96 1103.32ZM480.913 1119C475.686 1119 471.419 1117.4 468.113 1114.2C464.913 1110.89 463.313 1106.52 463.313 1101.08V1056.28H443.473V1039.64H463.313V1015H483.473V1039.64H505.233V1056.28H483.473V1097.56C483.473 1100.76 484.966 1102.36 487.953 1102.36H503.313V1119H480.913ZM532.121 1151V1133.4H575.321C578.308 1133.4 579.801 1131.8 579.801 1128.6V1108.6H576.921C576.068 1110.41 574.735 1112.23 572.921 1114.04C571.108 1115.85 568.655 1117.35 565.561 1118.52C562.468 1119.69 558.521 1120.28 553.721 1120.28C547.535 1120.28 542.095 1118.89 537.401 1116.12C532.815 1113.24 529.241 1109.29 526.681 1104.28C524.121 1099.27 522.841 1093.51 522.841 1087V1039.64H543.001V1085.4C543.001 1091.37 544.441 1095.85 547.321 1098.84C550.308 1101.83 554.521 1103.32 559.961 1103.32C566.148 1103.32 570.948 1101.29 574.361 1097.24C577.775 1093.08 579.481 1087.32 579.481 1079.96V1039.64H599.641V1133.08C599.641 1138.52 598.041 1142.84 594.841 1146.04C591.641 1149.35 587.375 1151 582.041 1151H532.121ZM622.075 1119V1007H642.235V1068.92H645.115L671.355 1039.64H697.595L660.955 1078.04L698.875 1119H672.955L645.115 1087.48H642.235V1119H622.075ZM735.465 1121.24C729.812 1121.24 724.745 1120.28 720.265 1118.36C715.785 1116.33 712.212 1113.45 709.545 1109.72C706.985 1105.88 705.705 1101.24 705.705 1095.8C705.705 1090.36 706.985 1085.83 709.545 1082.2C712.212 1078.47 715.838 1075.69 720.425 1073.88C725.118 1071.96 730.452 1071 736.425 1071H758.185V1066.52C758.185 1062.79 757.012 1059.75 754.665 1057.4C752.318 1054.95 748.585 1053.72 743.465 1053.72C738.452 1053.72 734.718 1054.89 732.265 1057.24C729.812 1059.48 728.212 1062.41 727.465 1066.04L708.905 1059.8C710.185 1055.75 712.212 1052.07 714.985 1048.76C717.865 1045.35 721.652 1042.63 726.345 1040.6C731.145 1038.47 736.958 1037.4 743.785 1037.4C754.238 1037.4 762.505 1040.01 768.585 1045.24C774.665 1050.47 777.705 1058.04 777.705 1067.96V1097.56C777.705 1100.76 779.198 1102.36 782.185 1102.36H788.585V1119H775.145C771.198 1119 767.945 1118.04 765.385 1116.12C762.825 1114.2 761.545 1111.64 761.545 1108.44V1108.28H758.505C758.078 1109.56 757.118 1111.27 755.625 1113.4C754.132 1115.43 751.785 1117.24 748.585 1118.84C745.385 1120.44 741.012 1121.24 735.465 1121.24ZM738.985 1104.92C744.638 1104.92 749.225 1103.37 752.745 1100.28C756.372 1097.08 758.185 1092.87 758.185 1087.64V1086.04H737.865C734.132 1086.04 731.198 1086.84 729.065 1088.44C726.932 1090.04 725.865 1092.28 725.865 1095.16C725.865 1098.04 726.985 1100.39 729.225 1102.2C731.465 1104.01 734.718 1104.92 738.985 1104.92Z" fill="#0E0E26"/>
<g clip-path="url(#clip0_502_504)">
<path d="M1185.7 170.987C1181.71 171.996 1178.04 174.014 1175.05 176.847C1172.07 179.681 1169.86 183.235 1168.64 187.169L1072.38 497.935L983.492 269.305C981.806 264.973 978.901 261.222 975.129 258.508C971.356 255.794 966.878 254.233 962.237 254.014C957.595 253.795 952.99 254.927 948.979 257.274C944.968 259.621 941.723 263.081 939.638 267.236L878.616 388.859H785.56C779.189 388.859 773.079 391.392 768.575 395.899C764.07 400.407 761.539 406.52 761.539 412.895C761.539 419.269 764.07 425.383 768.575 429.89C773.079 434.398 779.189 436.93 785.56 436.93H893.434C897.888 436.93 902.254 435.691 906.045 433.351C909.836 431.011 912.902 427.663 914.901 423.68L958.318 337.145L1052.56 579.551C1054.37 584.198 1057.58 588.166 1061.74 590.908C1065.91 593.649 1070.82 595.028 1075.8 594.852C1080.78 594.677 1085.58 592.956 1089.54 589.928C1093.5 586.9 1096.42 582.715 1097.89 577.953L1190.89 277.7L1237.91 438.868C1239.63 444.762 1243.54 449.773 1248.83 452.876C1254.13 455.978 1260.41 456.935 1266.39 455.551L1349.46 436.312C1355.66 434.874 1361.05 431.029 1364.42 425.621C1367.79 420.214 1368.88 413.687 1367.44 407.476C1366.73 404.401 1365.42 401.496 1363.59 398.928C1361.76 396.359 1359.43 394.176 1356.76 392.505C1354.08 390.834 1351.1 389.707 1347.99 389.187C1344.88 388.668 1341.7 388.768 1338.62 389.479L1277.67 403.596L1214.64 187.551C1212.89 181.579 1208.9 176.516 1203.51 173.427C1198.11 170.339 1191.73 169.464 1185.7 170.987Z" fill="#000C2D"/>
<path d="M1412.6 498.491C1398.43 498.491 1385.22 496.568 1372.97 492.723C1360.96 488.637 1350.39 482.628 1341.26 474.696C1332.37 466.764 1325.29 456.79 1320 444.772C1314.96 432.755 1312.44 418.694 1312.44 402.59C1312.44 386.727 1314.96 373.147 1320 361.851C1325.29 350.314 1332.13 340.94 1340.54 333.729C1348.95 326.278 1358.56 320.871 1369.37 317.506C1380.18 313.9 1391.23 312.098 1402.51 312.098C1415.25 312.098 1426.78 314.02 1437.1 317.866C1447.67 321.712 1456.68 327 1464.13 333.729C1471.81 340.459 1477.7 348.511 1481.78 357.885C1486.11 367.259 1488.27 377.474 1488.27 388.53C1488.27 396.702 1485.99 402.951 1481.42 407.277C1476.86 411.604 1470.49 414.368 1462.33 415.569L1373.33 428.909C1375.97 436.841 1381.38 442.849 1389.54 446.935C1397.71 450.781 1407.08 452.704 1417.65 452.704C1427.5 452.704 1436.74 451.502 1445.39 449.099C1454.28 446.455 1461.49 443.45 1467.01 440.085C1470.85 442.489 1474.1 445.854 1476.74 450.18C1479.38 454.506 1480.7 459.073 1480.7 463.88C1480.7 474.696 1475.66 482.748 1465.57 488.036C1457.88 492.122 1449.24 494.886 1439.63 496.328C1430.02 497.77 1421.01 498.491 1412.6 498.491ZM1402.51 356.803C1396.75 356.803 1391.71 357.765 1387.38 359.687C1383.3 361.61 1379.94 364.134 1377.29 367.259C1374.65 370.143 1372.61 373.508 1371.17 377.353C1369.97 380.959 1369.25 384.684 1369.01 388.53L1430.62 378.435C1429.9 373.628 1427.26 368.821 1422.69 364.014C1418.13 359.207 1411.4 356.803 1402.51 356.803ZM1510.19 405.114C1510.19 389.251 1512.59 375.551 1517.39 364.014C1522.2 352.237 1528.8 342.502 1537.21 334.811C1545.86 327.12 1555.83 321.471 1567.12 317.866C1578.65 314.02 1591.02 312.098 1604.23 312.098C1609.03 312.098 1613.72 312.578 1618.28 313.54C1622.84 314.261 1626.57 315.222 1629.45 316.424V258.018C1631.85 257.297 1635.7 256.576 1640.98 255.855C1646.26 254.894 1651.67 254.413 1657.19 254.413C1662.48 254.413 1667.16 254.774 1671.25 255.495C1675.57 256.216 1679.17 257.658 1682.06 259.821C1684.94 261.984 1687.1 264.989 1688.54 268.834C1689.98 272.44 1690.7 277.247 1690.7 283.255V454.146C1690.7 465.443 1685.42 474.456 1674.85 481.186C1667.88 485.752 1658.88 489.718 1647.83 493.083C1636.78 496.688 1624.05 498.491 1609.63 498.491C1594.02 498.491 1579.97 496.328 1567.48 492.001C1555.23 487.675 1544.78 481.426 1536.13 473.254C1527.72 465.082 1521.24 455.348 1516.67 444.051C1512.35 432.514 1510.19 419.535 1510.19 405.114ZM1612.52 360.048C1599.54 360.048 1589.58 363.773 1582.61 371.224C1575.64 378.675 1572.16 389.972 1572.16 405.114C1572.16 420.016 1575.4 431.312 1581.89 439.004C1588.37 446.455 1597.74 450.18 1609.99 450.18C1614.32 450.18 1618.16 449.579 1621.52 448.378C1625.13 446.935 1627.89 445.373 1629.81 443.691V364.374C1625.01 361.49 1619.24 360.048 1612.52 360.048ZM1795.53 405.835C1784.96 402.23 1775.36 398.625 1766.71 395.019C1758.06 391.174 1750.61 386.607 1744.37 381.319C1738.12 376.031 1733.2 369.782 1729.6 362.572C1726.23 355.121 1724.55 346.108 1724.55 335.532C1724.55 315.102 1732.36 298.758 1747.97 286.5C1763.83 274.242 1785.92 268.113 1814.27 268.113C1824.6 268.113 1834.21 268.834 1843.09 270.276C1851.98 271.718 1859.55 274.002 1865.79 277.126C1872.28 280.011 1877.32 283.856 1880.93 288.663C1884.53 293.23 1886.33 298.638 1886.33 304.887C1886.33 311.136 1884.89 316.544 1882.01 321.111C1879.12 325.437 1875.64 329.163 1871.56 332.287C1866.27 328.922 1859.19 326.038 1850.3 323.635C1841.41 320.991 1831.68 319.669 1821.12 319.669C1810.31 319.669 1802.38 321.231 1797.33 324.356C1792.29 327.24 1789.77 330.965 1789.77 335.532C1789.77 339.137 1791.33 342.142 1794.45 344.545C1797.57 346.708 1802.26 348.751 1808.5 350.674L1827.6 356.803C1850.18 364.014 1867.47 373.267 1879.49 384.564C1891.74 395.62 1897.86 410.762 1897.86 429.991C1897.86 450.42 1889.81 467.005 1873.72 479.743C1857.63 492.242 1833.97 498.491 1802.74 498.491C1791.69 498.491 1781.36 497.53 1771.75 495.607C1762.38 493.924 1754.1 491.401 1746.89 488.036C1739.93 484.43 1734.4 480.104 1730.32 475.057C1726.47 469.769 1724.55 463.76 1724.55 457.03C1724.55 450.06 1726.59 444.171 1730.68 439.364C1734.76 434.317 1739.2 430.471 1744.01 427.827C1750.73 433.115 1758.9 437.682 1768.51 441.527C1778.36 445.373 1789.05 447.296 1800.58 447.296C1812.35 447.296 1820.63 445.493 1825.44 441.888C1830.24 438.283 1832.64 434.077 1832.64 429.27C1832.64 424.462 1830.72 420.857 1826.88 418.454C1823.04 415.81 1817.63 413.286 1810.67 410.883L1795.53 405.835ZM1988.58 432.514C1988.58 438.763 1990.5 443.21 1994.34 445.854C1998.43 448.498 2004.07 449.82 2011.28 449.82C2014.88 449.82 2018.6 449.579 2022.45 449.099C2026.29 448.378 2029.65 447.536 2032.54 446.575C2034.7 449.219 2036.5 452.223 2037.94 455.588C2039.62 458.713 2040.46 462.558 2040.46 467.125C2040.46 476.258 2036.98 483.709 2030.01 489.478C2023.29 495.246 2011.28 498.13 1993.98 498.13C1972.85 498.13 1956.51 493.323 1944.98 483.709C1933.69 474.095 1928.05 458.472 1928.05 436.841V282.534C1930.69 281.813 1934.41 281.092 1939.22 280.371C1944.26 279.41 1949.55 278.929 1955.07 278.929C1965.64 278.929 1973.81 280.852 1979.57 284.697C1985.58 288.303 1988.58 296.114 1988.58 308.132V331.206H2035.78C2037.22 333.85 2038.54 337.214 2039.74 341.3C2041.18 345.146 2041.91 349.472 2041.91 354.28C2041.91 362.692 2039.98 368.821 2036.14 372.666C2032.54 376.272 2027.61 378.074 2021.37 378.074H1988.58V432.514ZM2250.71 405.114C2250.71 420.016 2248.43 433.355 2243.87 445.133C2239.3 456.67 2232.82 466.404 2224.41 474.336C2216.25 482.267 2206.4 488.276 2194.87 492.362C2183.34 496.448 2170.49 498.491 2156.31 498.491C2142.14 498.491 2129.29 496.328 2117.76 492.001C2106.23 487.675 2096.26 481.546 2087.85 473.615C2079.69 465.443 2073.32 455.588 2068.76 444.051C2064.19 432.514 2061.91 419.535 2061.91 405.114C2061.91 390.933 2064.19 378.074 2068.76 366.537C2073.32 355.001 2079.69 345.266 2087.85 337.335C2096.26 329.163 2106.23 322.914 2117.76 318.587C2129.29 314.261 2142.14 312.098 2156.31 312.098C2170.49 312.098 2183.34 314.381 2194.87 318.948C2206.4 323.274 2216.25 329.523 2224.41 337.695C2232.82 345.627 2239.3 355.361 2243.87 366.898C2248.43 378.435 2250.71 391.174 2250.71 405.114ZM2124.61 405.114C2124.61 419.776 2127.37 431.072 2132.89 439.004C2138.66 446.695 2146.59 450.541 2156.67 450.541C2166.76 450.541 2174.45 446.575 2179.73 438.643C2185.26 430.712 2188.02 419.535 2188.02 405.114C2188.02 390.693 2185.26 379.637 2179.73 371.945C2174.21 364.014 2166.4 360.048 2156.31 360.048C2146.22 360.048 2138.42 364.014 2132.89 371.945C2127.37 379.637 2124.61 390.693 2124.61 405.114ZM2451.75 460.996C2450.55 472.293 2447.18 480.945 2441.66 486.954C2436.37 492.963 2428.57 495.967 2418.24 495.967C2410.55 495.967 2403.71 494.165 2397.7 490.559C2391.7 486.714 2385.21 480.344 2378.24 471.451L2342.57 426.746V492.362C2339.93 492.843 2335.97 493.444 2330.68 494.165C2325.64 495.126 2320.47 495.607 2315.19 495.607C2309.91 495.607 2305.1 495.246 2300.78 494.525C2296.69 493.804 2293.21 492.362 2290.33 490.199C2287.45 488.036 2285.16 485.151 2283.48 481.546C2282.04 477.7 2281.32 472.773 2281.32 466.764V258.018C2283.96 257.297 2287.81 256.576 2292.85 255.855C2298.14 254.894 2303.42 254.413 2308.7 254.413C2313.99 254.413 2318.67 254.774 2322.76 255.495C2327.08 256.216 2330.68 257.658 2333.57 259.821C2336.45 261.984 2338.61 264.989 2340.05 268.834C2341.73 272.44 2342.57 277.247 2342.57 283.255V378.435L2404.55 314.982C2417.04 314.982 2427.01 317.746 2434.45 323.274C2442.14 328.802 2445.98 335.772 2445.98 344.185C2445.98 347.79 2445.38 351.155 2444.18 354.28C2442.98 357.164 2441.06 360.168 2438.42 363.293C2436.01 366.417 2432.77 369.782 2428.69 373.388C2424.84 376.752 2420.28 380.718 2415 385.285L2394.1 403.311L2451.75 460.996Z" fill="#000C2D"/>
<path d="M257.597 111.163C290.061 77.4009 312.312 66.4405 358.684 60.0883C349.492 52.84 341.855 49.5646 327.157 44.0648C368.802 28.5725 398.857 32.0904 441.257 41.5611C427.205 31.6267 418.436 27.0625 402.223 19.5288C503.853 18.4711 566.865 36.0531 618.409 132.194C635.184 105.152 628.084 80.0699 626.633 44.1996C626.499 40.8772 630.261 38.9792 632.841 41.0764C709.381 103.328 715.528 197.711 643.429 249.867C658.62 289.651 659.194 310.811 656.44 348.01C685.967 373.548 680.462 433.636 652.436 467.185C648.936 492.723 637.425 501.736 618.409 512.752C622.413 594.872 544.846 652.457 451.263 682C391.219 555.815 221.573 580.852 229.573 419.115C220.488 431.657 217.789 444.544 213.065 461.677C196.551 405.595 202.056 370.043 221.573 313.46C184.778 299.746 161.553 282.089 137 243.858C153.543 224.492 167.3 220.201 194.042 215.817C140.158 150.541 147.036 86.6447 242.416 13.0424C248.791 8.12312 257.543 13.6513 255.981 21.5535C249.009 56.8376 242.991 87.7757 257.597 111.163Z" fill="#0053A0"/>
<path d="M311.654 218.821C342.674 212.812 340.667 157.943 330.664 158.232C244.084 160.736 212.062 122.68 225.079 55.5815C150.509 133.195 225.074 224.329 311.654 218.821Z" fill="#FCDF66"/>
<path d="M368.206 142.209C376.33 174.104 375.835 191.898 370.702 221.825C404.731 175.257 438.586 165.84 496.31 238.35C496.31 238.35 510.823 248.364 510.823 226.332C510.823 205.957 509.358 206.89 507.722 189.421C507.621 188.347 509.042 187.905 509.56 188.851C533.022 231.742 541.893 254.336 500.314 272.4C494.604 274.88 491.977 305.793 498.192 323.137C498.583 324.229 496.747 325.691 495.864 324.939C481.377 312.607 473.255 302.923 466.29 280.411C432.53 291.278 403.23 291.928 407.24 250.868C359.693 255.375 366.699 360.028 411.243 399.586L420.751 369.041C429.156 399.682 432.888 419.476 435.764 464.681C441.946 451.081 445.225 442.6 449.79 429.067C450.135 428.045 451.645 428.219 451.759 429.293C454.676 456.755 457.989 472.515 470.294 495.226C475.175 483.357 476.164 473.695 477.834 456.802C477.94 455.728 479.435 455.581 479.772 456.606C501.346 522.065 501.932 551.393 489.811 600.881C505.271 583.871 512.348 573.671 521.338 553.812C523.187 581.805 519.744 596.449 510.829 621.912L511.062 621.722C548.784 590.96 569.995 573.662 594.401 511.25C583.265 510.745 577.01 510.95 565.876 514.254C561.151 529.726 557.332 537.181 548.361 547.803C551.26 534.876 551.443 527.525 548.361 514.254C545.287 507.672 536.639 503.311 531.346 506.242C526.375 511.246 524.725 515.104 523.333 523.267C494.809 487.715 515.569 453.416 599.905 446.655C605.404 447.156 609.908 413.607 604.904 415.109C586.917 415.348 579.376 412.605 566.871 399.586C561.36 397.583 560.96 408.286 561.366 416.11C535.344 386.066 560.365 363.032 619.916 394.078C627.423 398.585 658.364 396.081 658.45 389.571C658.566 380.748 658.366 378.314 651.444 369.542C648.864 366.273 632.616 368.839 612.91 366.538C596.392 364.609 585.887 356.022 564.369 357.524C532.091 359.778 529.392 397.035 510.322 458.673C485.467 386.534 501.32 334.652 571.875 336.994C589.891 337.592 612.41 347.51 638.432 345.507C637.74 301.315 626.292 275.672 593.4 227.834C601.036 230.065 605.173 231.761 612.41 235.846C624.984 201.904 593.4 126.686 563.368 90.1323C562.919 99.0524 562.345 103.93 560.365 112.165C541.538 68.0777 520.418 53.0441 472.796 39.5581C489.038 55.8554 494.941 65.903 499.319 85.6257C454.532 61.7255 429.917 57.6242 389.724 66.097C415.826 73.0133 427.364 79.3893 441.269 96.1411C392.544 91.842 370.624 96.8632 337.68 114.168C368.6 120.395 385.739 124.88 415.246 138.703C395.695 136.582 385.122 136.583 368.206 142.209Z" fill="#59C9FF"/>
<path d="M647.937 436.14C647.937 430.131 651.274 419.949 652.941 415.61C654.109 415.109 656.646 414.208 657.446 414.608C658.447 415.109 657.947 421.118 657.446 424.623C656.946 428.128 653.942 443.651 650.439 446.655C646.936 449.66 647.937 443.651 647.937 436.14Z" fill="#59C9FF"/>
<path d="M571.876 474.696C583.085 470.69 614.245 469.021 628.424 468.687C629.259 472.693 630.227 481.406 627.424 484.21C623.921 487.715 615.414 485.712 600.901 486.213C586.389 486.713 554.36 487.214 552.359 484.21C550.357 481.205 557.863 479.703 571.876 474.696Z" fill="#59C9FF"/>
<path d="M275.118 394.078C269.895 363.737 287.127 334.991 294.634 330.985C290.63 344.505 289.623 372.546 292.632 398.084C295.332 421.007 306.037 447.242 302.14 448.157C297.123 449.335 280.901 427.678 275.118 394.078Z" fill="#59C9FF"/>
<path d="M324.675 363.032C323.173 343.504 335.171 308.452 345.192 294.933C342.19 314.962 345.592 350.013 345.192 364.034C344.791 378.054 355.368 420.283 360.706 442.148C357.616 440.567 353.22 440.121 342.19 421.118C332.729 404.818 325.925 379.294 324.675 363.032Z" fill="#59C9FF"/>
<path d="M398.229 488.216C383.301 459.173 387.721 421.618 390.223 402.59C394.392 418.947 403.033 459.474 406.236 470.69C410.239 484.711 431.758 522.266 427.754 521.264C423.751 520.263 407.238 505.742 398.229 488.216Z" fill="#59C9FF"/>
<path d="M645.434 208.306L631.422 159.234C636.927 152.891 648.737 138.003 651.94 129.19C655.142 120.377 657.277 97.4764 657.945 87.1279C660.947 94.3052 668.354 114.969 673.958 140.206C679.563 165.443 657.277 196.121 645.434 208.306Z" fill="#FCDF66"/>
<path d="M480.296 257.377C453.584 242.3 437.628 236.118 408.234 229.336C418.743 226.833 452.272 227.834 452.272 227.834C452.272 227.834 475.125 249.533 480.296 257.377Z" fill="#59C9FF"/>
<path d="M199.052 240.352C239.585 235.345 266.61 257.878 264.107 259.881C263.107 263.887 209.006 254.064 203.074 262.885C201.053 265.89 238.104 283.415 235.102 287.421C233.976 288.923 232.599 289.924 214.084 280.911C199.569 273.846 181.888 255.874 173.547 247.862C171.528 245.924 178.193 242.929 199.052 240.352Z" fill="#59C9FF"/>
<path d="M447.767 260.883C447.767 264.734 446.238 268.427 443.517 271.151C440.795 273.874 437.104 275.404 433.255 275.404C429.406 275.404 425.714 273.874 422.993 271.151C420.271 268.427 418.742 264.734 418.742 260.883C418.742 257.031 420.271 253.338 422.993 250.615C425.714 247.891 429.406 246.361 433.255 246.361C437.104 246.361 440.795 247.891 443.517 250.615C446.238 253.338 447.767 257.031 447.767 260.883Z" fill="#59C9FF"/>
<path d="M449.769 256.376C449.769 259.298 448.609 262.1 446.544 264.166C444.48 266.232 441.679 267.392 438.759 267.392C435.84 267.392 433.039 266.232 430.975 264.166C428.91 262.1 427.75 259.298 427.75 256.376C427.75 253.454 428.91 250.652 430.975 248.586C433.039 246.52 435.84 245.36 438.759 245.36C441.679 245.36 444.48 246.52 446.544 248.586C448.609 250.652 449.769 253.454 449.769 256.376Z" fill="#0053A0"/>
</g>
<defs>
<clipPath id="clip0_502_504">
<rect width="2325" height="682" fill="white" transform="translate(137)"/>
</clipPath>
</defs>
</svg>
